<svg id="Layer_1" data-name="Layer 1" xmlns="http://www.w3.org/2000/svg" viewBox="0 0 74.04 34.08"><defs><style>.cls-1{fill:#231f20;}.cls-2{fill:#ed1944;}</style></defs><title>ai-com-logo-p</title><path class="cls-1" d="M24.56,10.67l-.48-1.95h-2.4l-.5,1.95H20.4l2-7.81h1.05l1.93,7.81ZM22.91,3.56h0L21.79,8.1H24Z"/><path class="cls-1" d="M30.84,9.07a2.73,2.73,0,0,1-.38.94,1.8,1.8,0,0,1-.69.62,2.53,2.53,0,0,1-2.11,0A1.85,1.85,0,0,1,27,10a2.54,2.54,0,0,1-.37-.94,5.13,5.13,0,0,1-.11-1.14V2.86h.77v5a6,6,0,0,0,.06.85,2.44,2.44,0,0,0,.22.75A1.49,1.49,0,0,0,28,10a1.43,1.43,0,0,0,1.46,0,1.42,1.42,0,0,0,.45-.52,2.46,2.46,0,0,0,.22-.74,6,6,0,0,0,.06-.86v-5H31V7.93A5.8,5.8,0,0,1,30.84,9.07Z"/><path class="cls-1" d="M35.87,8.67a2.4,2.4,0,0,1-.16.92,2,2,0,0,1-.42.69,2,2,0,0,1-.63.43,2,2,0,0,1-.78.15,2.37,2.37,0,0,1-1.09-.26A2.15,2.15,0,0,1,32,9.93l.47-.54a1.79,1.79,0,0,0,1.42.76,1.19,1.19,0,0,0,.89-.38,1.46,1.46,0,0,0,.36-1.06,1.42,1.42,0,0,0-.41-1,2.37,2.37,0,0,0-.42-.35A4.21,4.21,0,0,0,33.78,7a4.48,4.48,0,0,1-.6-.35,2.4,2.4,0,0,1-.5-.45,1.76,1.76,0,0,1-.35-.6,2.22,2.22,0,0,1-.13-.81,2.47,2.47,0,0,1,.16-.94,1.88,1.88,0,0,1,.45-.67,1.77,1.77,0,0,1,.63-.4,2.07,2.07,0,0,1,.74-.14,2.24,2.24,0,0,1,1,.19,1.79,1.79,0,0,1,.72.56L35.37,4a1.24,1.24,0,0,0-.52-.45,1.38,1.38,0,0,0-.65-.14,1.42,1.42,0,0,0-.45.08,1.19,1.19,0,0,0-.41.26,1.44,1.44,0,0,0-.28.45,1.64,1.64,0,0,0-.11.65,1.5,1.5,0,0,0,.1.58,1.3,1.3,0,0,0,.27.43,2.12,2.12,0,0,0,.39.33l.47.26a5.32,5.32,0,0,1,.61.35,2.79,2.79,0,0,1,.55.47,1.85,1.85,0,0,1,.38.62A2.07,2.07,0,0,1,35.87,8.67Z"/><path class="cls-1" d="M39.4,3.52v7.15h-.76V3.52h-1.5V2.86h3.77v.66Z"/><path class="cls-1" d="M45.41,10.67,44,7.05H43v3.62h-.76V2.86h1.87a2.67,2.67,0,0,1,.75.11,1.72,1.72,0,0,1,.64.34A1.89,1.89,0,0,1,46,4a2.55,2.55,0,0,1,.17,1,2.47,2.47,0,0,1-.13.86,1.73,1.73,0,0,1-.33.6,1.31,1.31,0,0,1-.45.37,1.37,1.37,0,0,1-.49.17l1.52,3.75Zm0-5.71a1.92,1.92,0,0,0-.11-.69A1.28,1.28,0,0,0,45,3.82a1.1,1.1,0,0,0-.44-.23A2.25,2.25,0,0,0,44,3.52H43V6.45h1a1.28,1.28,0,0,0,1-.4A1.54,1.54,0,0,0,45.37,5Z"/><path class="cls-1" d="M51.38,10.67l-.47-1.95H48.5L48,10.67h-.79l2-7.81h1l1.93,7.81ZM49.74,3.56h-.05L48.61,8.1H50.8Z"/><path class="cls-1" d="M53.54,10.67V2.86h.77V10h2.23v.72Z"/><path class="cls-1" d="M58.09,10.67V2.86h.77v7.81Z"/><path class="cls-1" d="M64.48,10.67,64,8.72H61.6l-.5,1.95h-.78l2-7.81h1l1.93,7.81ZM62.83,3.56h0L61.71,8.1h2.18Z"/><path class="cls-1" d="M66.62,8.1V7.48h4.54V8.1Z"/><path class="cls-1" d="M22.49,20.94v-7.8h.78v7.8Z"/><path class="cls-1" d="M28.63,20.94l-2.72-6.49h0v6.49h-.73v-7.8h1l2.7,6.49h0V13.14h.71v7.8Z"/><path class="cls-1" d="M35.39,17.05a6.58,6.58,0,0,1-.2,1.69A3.53,3.53,0,0,1,34.62,20a2.56,2.56,0,0,1-.9.74,2.77,2.77,0,0,1-1.16.24H30.88v-7.8h1.69a2.63,2.63,0,0,1,1.16.25,2.26,2.26,0,0,1,.89.74,3.5,3.5,0,0,1,.57,1.23A6.58,6.58,0,0,1,35.39,17.05Zm-.76,0a5.61,5.61,0,0,0-.16-1.44,3.27,3.27,0,0,0-.44-1,1.87,1.87,0,0,0-.66-.6,1.82,1.82,0,0,0-.83-.2h-.9v6.48h.9a1.7,1.7,0,0,0,.83-.2,1.93,1.93,0,0,0,.66-.59,3.38,3.38,0,0,0,.44-1A5.53,5.53,0,0,0,34.63,17.05Z"/><path class="cls-1" d="M41.46,17a7.25,7.25,0,0,1-.18,1.67A4.46,4.46,0,0,1,40.77,20a2.59,2.59,0,0,1-.8.84,2.11,2.11,0,0,1-2.17,0A2.51,2.51,0,0,1,37,20a4.2,4.2,0,0,1-.52-1.29A7.87,7.87,0,0,1,36.3,17a7.12,7.12,0,0,1,.17-1.66,4,4,0,0,1,.5-1.29,2.39,2.39,0,0,1,.81-.83,2.05,2.05,0,0,1,1.11-.3,2,2,0,0,1,1.08.3,2.45,2.45,0,0,1,.8.83,4.24,4.24,0,0,1,.51,1.29A7.1,7.1,0,0,1,41.46,17Zm-.81,0a7.09,7.09,0,0,0-.11-1.33,4,4,0,0,0-.34-1.07,2,2,0,0,0-.55-.71,1.18,1.18,0,0,0-.76-.27,1.22,1.22,0,0,0-.79.27,1.93,1.93,0,0,0-.56.71,4.82,4.82,0,0,0-.33,1.07A8,8,0,0,0,37.1,17a7.83,7.83,0,0,0,.11,1.32,4.91,4.91,0,0,0,.33,1.08,2,2,0,0,0,.56.73,1.21,1.21,0,0,0,.79.26,1.18,1.18,0,0,0,.77-.26,2.1,2.1,0,0,0,.55-.73,4,4,0,0,0,.33-1.08A6.91,6.91,0,0,0,40.65,17Z"/><path class="cls-1" d="M46,20.94l-2.72-6.49h0v6.49H42.5v-7.8h1l2.7,6.49h0V13.14h.7v7.8Z"/><path class="cls-1" d="M48.49,20.94v-7.8h3.14v.68H49.24v2.73h2.24v.67H49.24v3h2.5v.69Z"/><path class="cls-1" d="M56.63,19a2.65,2.65,0,0,1-.15.92,2.13,2.13,0,0,1-.43.68,1.81,1.81,0,0,1-.63.43,2,2,0,0,1-.77.15,2.37,2.37,0,0,1-1.1-.25,2.24,2.24,0,0,1-.81-.67l.47-.54a1.72,1.72,0,0,0,.64.56,1.75,1.75,0,0,0,.79.2,1.17,1.17,0,0,0,.88-.38,1.7,1.7,0,0,0,.25-1.65,1.37,1.37,0,0,0-.3-.45,1.82,1.82,0,0,0-.42-.36,4.91,4.91,0,0,0-.5-.28,5.11,5.11,0,0,1-.61-.35,2.4,2.4,0,0,1-.5-.45,2,2,0,0,1-.35-.6A2.22,2.22,0,0,1,53,15.1a2.47,2.47,0,0,1,.16-.94,1.88,1.88,0,0,1,.45-.67,2,2,0,0,1,.63-.41,2.1,2.1,0,0,1,.74-.13,2.45,2.45,0,0,1,1,.18,1.7,1.7,0,0,1,.71.57l-.48.54a1.38,1.38,0,0,0-.51-.46,1.57,1.57,0,0,0-.65-.13,1.21,1.21,0,0,0-.46.08,1,1,0,0,0-.4.26,1.13,1.13,0,0,0-.29.45,1.61,1.61,0,0,0-.11.65,1.42,1.42,0,0,0,.1.57,1.21,1.21,0,0,0,.27.43,1.44,1.44,0,0,0,.4.33,4.25,4.25,0,0,0,.46.27,5.32,5.32,0,0,1,.61.35,2.74,2.74,0,0,1,.55.46A2,2,0,0,1,56.63,19Z"/><path class="cls-1" d="M58.09,20.94v-7.8h.77v7.8Z"/><path class="cls-1" d="M64.48,20.94,64,19H61.6l-.5,2h-.78l2-7.8h1l1.93,7.8Zm-1.65-7.11h0l-1.08,4.54h2.18Z"/><path class="cls-1" d="M21.62,30.74a.54.54,0,0,1-.15.4.51.51,0,0,1-.37.16.47.47,0,0,1-.36-.16.54.54,0,0,1-.15-.4.55.55,0,0,1,.15-.38.45.45,0,0,1,.36-.17.48.48,0,0,1,.37.17A.55.55,0,0,1,21.62,30.74Z"/><path class="cls-1" d="M26.22,31.13a2.16,2.16,0,0,1-1.07.28A2.08,2.08,0,0,1,24,31.09a2.76,2.76,0,0,1-.84-.86,4.41,4.41,0,0,1-.52-1.3,6.81,6.81,0,0,1-.18-1.62,7,7,0,0,1,.18-1.63,4.2,4.2,0,0,1,.53-1.29,2.66,2.66,0,0,1,.84-.86,2.15,2.15,0,0,1,1.13-.31,2.29,2.29,0,0,1,1,.24,2,2,0,0,1,.8.72l-.5.51a1.6,1.6,0,0,0-.59-.57,1.38,1.38,0,0,0-.71-.19,1.42,1.42,0,0,0-.84.26,2.09,2.09,0,0,0-.6.73A4,4,0,0,0,23.39,26a6.86,6.86,0,0,0-.12,1.31,6.79,6.79,0,0,0,.12,1.31,4,4,0,0,0,.36,1.08,2.18,2.18,0,0,0,.6.73,1.36,1.36,0,0,0,.84.27,1.29,1.29,0,0,0,.76-.24,1.76,1.76,0,0,0,.56-.62l.49.5A2.27,2.27,0,0,1,26.22,31.13Z"/><path class="cls-1" d="M33.06,27.34A7.8,7.8,0,0,1,32.89,29a4.52,4.52,0,0,1-.51,1.3,2.48,2.48,0,0,1-.81.83,2,2,0,0,1-1.08.3,2,2,0,0,1-1.08-.3,2.6,2.6,0,0,1-.82-.83,4.52,4.52,0,0,1-.51-1.3,7.18,7.18,0,0,1-.18-1.67,7.77,7.77,0,0,1,.17-1.66,4.19,4.19,0,0,1,.51-1.29,2.48,2.48,0,0,1,.81-.83,2,2,0,0,1,1.1-.3,2,2,0,0,1,1.08.3,2.48,2.48,0,0,1,.81.83,4.46,4.46,0,0,1,.51,1.29A7.77,7.77,0,0,1,33.06,27.34Zm-.8,0A7.83,7.83,0,0,0,32.15,26,4.21,4.21,0,0,0,31.81,25a2,2,0,0,0-.56-.72,1.15,1.15,0,0,0-.76-.26,1.19,1.19,0,0,0-.78.26,1.94,1.94,0,0,0-.56.72A3.85,3.85,0,0,0,28.82,26a8,8,0,0,0,0,2.64,3.92,3.92,0,0,0,.33,1.08,1.9,1.9,0,0,0,.56.73,1.26,1.26,0,0,0,1.56,0,2.1,2.1,0,0,0,.55-.73,4.75,4.75,0,0,0,.33-1.08A7.83,7.83,0,0,0,32.26,27.34Z"/><path class="cls-1" d="M39.57,31.22V24.44h0l-1.92,6.78h-.71L35,24.44h0v6.78h-.73V23.41h1.15L37.25,30h0l1.84-6.59h1.19v7.81Z"/><polygon class="cls-2" points="12.51 2.72 2.07 31.41 3.24 31.41 13.68 2.72 12.51 2.72"/><polygon class="cls-1" points="13.16 10.07 7.87 24.05 18.44 24.05 13.16 10.07"/></svg>