<svg id="Layer_1" data-name="Layer 1" xmlns="http://www.w3.org/2000/svg" viewBox="0 0 72.5 34.75"><defs><style>.cls-1{fill:#fff;}.cls-2{fill:#ed1944;}</style></defs><title>ai-com-logo</title><path class="cls-1" d="M23.67,11,23.2,9.05H20.8L20.3,11h-.78l2-7.8h1.05L24.48,11ZM22,3.89h0L20.91,8.44h2.18Z"/><path class="cls-1" d="M30,9.41a2.59,2.59,0,0,1-.37.93,1.82,1.82,0,0,1-.69.63,2.28,2.28,0,0,1-1.06.22,2.21,2.21,0,0,1-1-.22,2,2,0,0,1-.69-.63,2.58,2.58,0,0,1-.36-.93,5.25,5.25,0,0,1-.11-1.14V3.2h.77v5a6,6,0,0,0,.06.85,2.29,2.29,0,0,0,.22.74,1.34,1.34,0,0,0,1.9.53A1.37,1.37,0,0,0,29,9.76,2.6,2.6,0,0,0,29.24,9a6,6,0,0,0,.06-.86v-5h.77V8.27A5.24,5.24,0,0,1,30,9.41Z"/><path class="cls-1" d="M35,9a2.65,2.65,0,0,1-.16.92,1.87,1.87,0,0,1-.42.68,1.76,1.76,0,0,1-.64.43,2,2,0,0,1-.77.15,2.43,2.43,0,0,1-1.1-.25,2.31,2.31,0,0,1-.81-.67l.48-.54a1.72,1.72,0,0,0,.64.56,1.68,1.68,0,0,0,.78.2,1.19,1.19,0,0,0,.89-.38A1.49,1.49,0,0,0,34.24,9a1.5,1.5,0,0,0-.11-.58,1.77,1.77,0,0,0-.3-.45,2.49,2.49,0,0,0-.43-.36,4.68,4.68,0,0,0-.5-.28A5.88,5.88,0,0,1,32.3,7a2.46,2.46,0,0,1-.51-.45,2,2,0,0,1-.34-.6,2.21,2.21,0,0,1-.14-.81,2.46,2.46,0,0,1,.17-.94,1.88,1.88,0,0,1,.45-.67,1.76,1.76,0,0,1,.63-.41A2.06,2.06,0,0,1,33.3,3a2.4,2.4,0,0,1,1,.18,1.7,1.7,0,0,1,.71.57l-.47.54A1.41,1.41,0,0,0,34,3.84a1.54,1.54,0,0,0-.65-.13,1.24,1.24,0,0,0-.46.08,1,1,0,0,0-.4.26,1.45,1.45,0,0,0-.29.45,1.8,1.8,0,0,0-.11.65,1.61,1.61,0,0,0,.1.57,1.57,1.57,0,0,0,.27.43,1.8,1.8,0,0,0,.4.33,4.39,4.39,0,0,0,.47.27,5.32,5.32,0,0,1,.61.35,2.74,2.74,0,0,1,.55.47,1.91,1.91,0,0,1,.38.61A2.12,2.12,0,0,1,35,9Z"/><path class="cls-1" d="M38.51,3.86V11h-.76V3.86h-1.5V3.2H40v.66Z"/><path class="cls-1" d="M44.53,11,43.12,7.39h-1V11h-.76V3.2h1.87a2.66,2.66,0,0,1,.75.1,1.74,1.74,0,0,1,.64.35,1.93,1.93,0,0,1,.45.64,2.51,2.51,0,0,1,.17,1,2.37,2.37,0,0,1-.13.85,1.88,1.88,0,0,1-.33.61,1.7,1.7,0,0,1-.45.37,1.69,1.69,0,0,1-.49.17L45.36,11Zm0-5.7a1.79,1.79,0,0,0-.12-.7,1.12,1.12,0,0,0-.31-.44,1,1,0,0,0-.44-.23,1.7,1.7,0,0,0-.51-.07h-1V6.78h1a1.28,1.28,0,0,0,1-.39A1.54,1.54,0,0,0,44.49,5.3Z"/><path class="cls-1" d="M50.5,11,50,9.05h-2.4L47.12,11h-.78l2-7.8h1L51.3,11ZM48.85,3.89h0L47.73,8.44h2.18Z"/><path class="cls-1" d="M52.66,11V3.2h.77v7.09h2.23V11Z"/><path class="cls-1" d="M57.21,11V3.2H58V11Z"/><path class="cls-1" d="M63.59,11l-.47-1.95h-2.4L60.22,11h-.78l2-7.8h1L64.4,11ZM62,3.89h0L60.83,8.44H63Z"/><path class="cls-1" d="M65.74,8.44V7.82h4.54v.62Z"/><path class="cls-1" d="M21.61,21.28v-7.8h.77v7.8Z"/><path class="cls-1" d="M27.74,21.28,25,14.79h0v6.49h-.72v-7.8h1L27.93,20h0V13.48h.71v7.8Z"/><path class="cls-1" d="M34.51,17.39a6.58,6.58,0,0,1-.2,1.69,3.25,3.25,0,0,1-.58,1.21,2.26,2.26,0,0,1-.89.74,2.64,2.64,0,0,1-1.17.25H30v-7.8h1.68a2.78,2.78,0,0,1,1.17.24,2.45,2.45,0,0,1,.89.75,3.5,3.5,0,0,1,.57,1.23A6.58,6.58,0,0,1,34.51,17.39Zm-.76,0A6,6,0,0,0,33.59,16a3.44,3.44,0,0,0-.44-1,1.87,1.87,0,0,0-.67-.59,1.63,1.63,0,0,0-.82-.2h-.9v6.48h.9a1.74,1.74,0,0,0,.82-.2,1.81,1.81,0,0,0,.67-.6,3.31,3.31,0,0,0,.44-1A6.06,6.06,0,0,0,33.75,17.39Z"/><path class="cls-1" d="M40.57,17.36A7.35,7.35,0,0,1,40.4,19a4.46,4.46,0,0,1-.51,1.29,2.59,2.59,0,0,1-.8.84,2.11,2.11,0,0,1-2.17,0,2.64,2.64,0,0,1-.82-.84A4.46,4.46,0,0,1,35.59,19a7.34,7.34,0,0,1-.18-1.68,7.84,7.84,0,0,1,.17-1.66,4.46,4.46,0,0,1,.51-1.29,2.57,2.57,0,0,1,.81-.83,2,2,0,0,1,1.1-.3,2,2,0,0,1,1.09.3,2.65,2.65,0,0,1,.8.83,4.46,4.46,0,0,1,.51,1.29A7.24,7.24,0,0,1,40.57,17.36Zm-.8,0A7.83,7.83,0,0,0,39.66,16,4.21,4.21,0,0,0,39.32,15a2,2,0,0,0-.55-.71,1.25,1.25,0,0,0-1.55,0,1.93,1.93,0,0,0-.56.71A3.85,3.85,0,0,0,36.33,16a8,8,0,0,0,0,2.65,4,4,0,0,0,.33,1.08,2,2,0,0,0,.56.73,1.3,1.3,0,0,0,1.56,0,2.1,2.1,0,0,0,.55-.73,4.91,4.91,0,0,0,.33-1.08A7.86,7.86,0,0,0,39.77,17.36Z"/><path class="cls-1" d="M45.1,21.28l-2.72-6.49h0v6.49h-.73v-7.8h1L45.28,20h0V13.48H46v7.8Z"/><path class="cls-1" d="M47.61,21.28v-7.8h3.14v.68H48.36v2.73h2.23v.66H48.36v3h2.5v.69Z"/><path class="cls-1" d="M55.75,19.29a2.43,2.43,0,0,1-.16.92,2,2,0,0,1-.42.68,1.81,1.81,0,0,1-.63.43,2,2,0,0,1-.78.15,2.37,2.37,0,0,1-1.09-.26,2.06,2.06,0,0,1-.81-.67l.47-.54a1.85,1.85,0,0,0,.64.57,1.72,1.72,0,0,0,.78.19,1.19,1.19,0,0,0,.89-.37A1.49,1.49,0,0,0,55,19.32a1.55,1.55,0,0,0-.11-.59,1.86,1.86,0,0,0-.3-.45,2.37,2.37,0,0,0-.42-.35c-.16-.1-.33-.2-.51-.29a4.48,4.48,0,0,1-.6-.35,2.11,2.11,0,0,1-.5-.44,2,2,0,0,1-.35-.6,2.22,2.22,0,0,1-.13-.81,2.43,2.43,0,0,1,.16-.94,1.87,1.87,0,0,1,1.08-1.08,2.06,2.06,0,0,1,.74-.13,2.4,2.4,0,0,1,.95.18,1.73,1.73,0,0,1,.72.57l-.48.54a1.2,1.2,0,0,0-.52-.46,1.51,1.51,0,0,0-.65-.14,1.42,1.42,0,0,0-.45.08,1.36,1.36,0,0,0-.41.26,1.38,1.38,0,0,0-.28.46,1.91,1.91,0,0,0,0,1.22,1.39,1.39,0,0,0,.28.43,1.79,1.79,0,0,0,.39.33,4.39,4.39,0,0,0,.47.27,5.32,5.32,0,0,1,.61.35,2.74,2.74,0,0,1,.55.46,2,2,0,0,1,.38.62A2.09,2.09,0,0,1,55.75,19.29Z"/><path class="cls-1" d="M57.21,21.28v-7.8H58v7.8Z"/><path class="cls-1" d="M63.59,21.28l-.47-2h-2.4l-.5,2h-.78l2-7.8h1l1.93,7.8ZM62,14.17h0l-1.08,4.54H63Z"/><path class="cls-1" d="M20.74,31.08a.57.57,0,0,1-.15.4.51.51,0,0,1-.37.15.5.5,0,0,1-.37-.15.61.61,0,0,1-.14-.4.6.6,0,0,1,.14-.39.47.47,0,0,1,.37-.16.49.49,0,0,1,.37.16A.56.56,0,0,1,20.74,31.08Z"/><path class="cls-1" d="M25.33,31.47a2.1,2.1,0,0,1-1.07.27,2.06,2.06,0,0,1-1.13-.31,2.76,2.76,0,0,1-.84-.86,4.36,4.36,0,0,1-.52-1.3,7,7,0,0,1,0-3.25,4.2,4.2,0,0,1,.53-1.29,2.66,2.66,0,0,1,.84-.86,2,2,0,0,1,1.12-.31,2.47,2.47,0,0,1,1,.23,2.13,2.13,0,0,1,.8.73l-.5.51a1.81,1.81,0,0,0-.59-.58,1.5,1.5,0,0,0-.71-.18,1.43,1.43,0,0,0-.85.26,2.06,2.06,0,0,0-.59.73,3.7,3.7,0,0,0-.35,1.08,6.86,6.86,0,0,0-.12,1.31A6.79,6.79,0,0,0,22.51,29,4,4,0,0,0,22.87,30a2.22,2.22,0,0,0,.59.74,1.39,1.39,0,0,0,.85.27,1.29,1.29,0,0,0,.76-.24,2,2,0,0,0,.56-.62l.49.49A2.24,2.24,0,0,1,25.33,31.47Z"/><path class="cls-1" d="M32.18,27.68A7.25,7.25,0,0,1,32,29.35a4.18,4.18,0,0,1-.5,1.29,2.51,2.51,0,0,1-.81.84,2,2,0,0,1-1.08.3,2,2,0,0,1-1.08-.3,2.54,2.54,0,0,1-.82-.84,4.19,4.19,0,0,1-.51-1.29A7.25,7.25,0,0,1,27,27.68,7.7,7.7,0,0,1,27.19,26a4.24,4.24,0,0,1,.5-1.29,2.39,2.39,0,0,1,.81-.83,2.05,2.05,0,0,1,1.11-.3,2,2,0,0,1,1.08.3,2.39,2.39,0,0,1,.81.83A4,4,0,0,1,32,26,7.1,7.1,0,0,1,32.18,27.68Zm-.8,0a8,8,0,0,0-.11-1.33,4.34,4.34,0,0,0-.34-1.07,2,2,0,0,0-.56-.71,1.16,1.16,0,0,0-.76-.27,1.24,1.24,0,0,0-.79.27,1.91,1.91,0,0,0-.55.71,4,4,0,0,0-.33,1.07,7.09,7.09,0,0,0-.11,1.33A6.91,6.91,0,0,0,27.94,29a4,4,0,0,0,.33,1.08,2,2,0,0,0,.55.73,1.23,1.23,0,0,0,.79.26,1.16,1.16,0,0,0,.77-.26,2,2,0,0,0,.55-.73A4.42,4.42,0,0,0,31.27,29,7.83,7.83,0,0,0,31.38,27.68Z"/><path class="cls-1" d="M38.69,31.55V24.77h0l-1.91,6.78H36l-1.9-6.78h0v6.78h-.73v-7.8h1.15l1.86,6.59h0l1.85-6.59h1.19v7.8Z"/><polygon class="cls-2" points="11.63 3.05 1.19 31.74 2.35 31.74 12.8 3.05 11.63 3.05"/><polygon class="cls-1" points="12.27 10.41 6.99 24.39 17.55 24.39 12.27 10.41"/></svg>