<svg id="Layer_1" data-name="Layer 1" xmlns="http://www.w3.org/2000/svg" viewBox="0 0 99.59 29.25"><defs><style>.cls-1{stroke:#fff;stroke-miterlimit:10;}.cls-2{fill:#ed1944;}.cls-3{fill:#ee3242;}.cls-4{fill:#ef4340;}.cls-5{fill:#f0523d;}.cls-6{fill:#f15e39;}.cls-7{fill:#f26a35;}.cls-8{fill:#f47531;}.cls-9{fill:#f57f2b;}.cls-10{fill:#f7921e;}</style></defs><title>aic-logo-inv</title><path class="cls-1" d="M31.79,14.78l-.11.55H31.2l.46,4.85h.5l-.1.55H30.24l.11-.55H31l-.12-1.35h-2l-.67,1.35h.56l-.1.55H26.81l.11-.55h.49l2.51-4.85h-.47l.1-.55Zm-1.25.55-1.46,3h1.71Z"/><path class="cls-1" d="M36.44,16.35l-.61,3.21c-.07.36-.11.67.26.67h.3l-.11.55a2.72,2.72,0,0,1-.49,0c-.51,0-.7-.23-.71-.65a1.47,1.47,0,0,1-1.3.69,1.36,1.36,0,0,1-.76-.2.84.84,0,0,1-.4-.75,3.59,3.59,0,0,1,.11-.72l.42-2.27h-.62l.1-.54H34l-.55,2.87a4,4,0,0,0-.06.47c0,.41.27.57.62.57,1,0,1.18-1,1.3-1.59l.33-1.78H35l.1-.54Z"/><path class="cls-1" d="M37.87,18.38a1,1,0,0,1-.58-.95,1.23,1.23,0,0,1,1.25-1.21h.13a1.22,1.22,0,0,1,1.12.54l.1-.42h.55l-.27,1.42H39.6a1.13,1.13,0,0,0-.12-.62.78.78,0,0,0-.72-.4.68.68,0,0,0-.75.61h0c0,.29.21.43.43.58l.58.37c.5.34.86.63.86,1.21a1.33,1.33,0,0,1-1.35,1.32l-.16,0a1.12,1.12,0,0,1-1.08-.55l-.09.45h-.57l.28-1.5h.58a1.08,1.08,0,0,0,.12.71.76.76,0,0,0,.76.37c.35,0,.81-.16.81-.68s-.29-.6-.61-.79Z"/><path class="cls-1" d="M42.34,15.28l-.2,1.07h1l-.11.54H42l-.47,2.58a1.82,1.82,0,0,0-.06.46c0,.3.21.37.47.37h.37l-.1.53a1.73,1.73,0,0,1-.45.05c-.27,0-1,0-1-.77a2.63,2.63,0,0,1,.06-.39L41.34,17h-.65l.11-.54h.64l.18-.94Z"/><path class="cls-1" d="M44.59,17.08a1.52,1.52,0,0,1,1.23-.85,2.54,2.54,0,0,1,.39,0l-.13.71-.32-.05a1.26,1.26,0,0,0-1.06.66,3.53,3.53,0,0,0-.4,1.17L44,20.18h.65l-.11.55h-2l.11-.55h.63L44,16.89h-.64l.11-.54h1.26Z"/><path class="cls-1" d="M49.87,20.71a2,2,0,0,1-.49.06c-.56,0-.69-.23-.76-.61a1.43,1.43,0,0,1-1.29.66c-1.1,0-1.42-.93-1.42-1.71,0-1.27.76-2.87,2.12-2.87a1.28,1.28,0,0,1,1.11.54c0,.06.06.11.09.18l.12-.61H50l-.62,3.29a1.4,1.4,0,0,0,0,.29.27.27,0,0,0,.25.29,0,0,0,0,0,0,0,.87.87,0,0,0,.32-.06Zm-.94-3.31a.81.81,0,0,0-.83-.62c-1.16,0-1.49,1.81-1.49,2.37,0,.93.53,1.11.86,1.11A1.09,1.09,0,0,0,48.2,20a3.24,3.24,0,0,0,.8-2.19A1.47,1.47,0,0,0,48.93,17.4Z"/><path class="cls-1" d="M50.79,14.78h1.34l-.93,4.9a1,1,0,0,0-.05.3.29.29,0,0,0,.28.29h0a1.33,1.33,0,0,0,.34-.05l-.1.52a2.33,2.33,0,0,1-.59.08,1.13,1.13,0,0,1-.26,0,.6.6,0,0,1-.42-.63,3,3,0,0,1,.07-.51l.81-4.31h-.63Z"/><path class="cls-1" d="M52.59,16.35h1.34l-.64,3.33v.26a.25.25,0,0,0,.23.29h.06a1.49,1.49,0,0,0,.36-.05l-.1.55a1.32,1.32,0,0,1-.52.08.72.72,0,0,1-.56-.18.64.64,0,0,1-.2-.51,1,1,0,0,1,0-.34l.55-2.89h-.63Zm.83-1.57h.86l-.14.69h-.85Z"/><path class="cls-1" d="M58.24,20.71a2,2,0,0,1-.49.06c-.57,0-.69-.23-.76-.61a1.43,1.43,0,0,1-1.29.66c-1.1,0-1.42-.93-1.42-1.71,0-1.27.75-2.87,2.11-2.87a1.25,1.25,0,0,1,1.11.54,1.62,1.62,0,0,1,.1.18l.11-.61h.66l-.62,3.29a1.4,1.4,0,0,0,0,.29.27.27,0,0,0,.25.29,0,0,0,0,0,0,0,.87.87,0,0,0,.32-.06ZM57.3,17.4a.81.81,0,0,0-.83-.62c-1.16,0-1.49,1.81-1.49,2.37,0,.93.53,1.11.86,1.11a1.09,1.09,0,0,0,.73-.26,3.25,3.25,0,0,0,.77-2.19A1.46,1.46,0,0,0,57.3,17.4Z"/><path class="cls-1" d="M62.24,18l-.14.69H59l.13-.69Z"/><path class="cls-1" d="M65.23,14.78l-.1.55h-.64l-.92,4.85h.63l-.1.55h-2l.11-.55h.63l.92-4.85h-.63l.1-.55Z"/><path class="cls-1" d="M68.67,19.65a1.4,1.4,0,0,0,0,.29.3.3,0,0,0,.31.28h0a.78.78,0,0,0,.33-.07l-.1.55a1.26,1.26,0,0,1-.47.08c-.48,0-.81-.2-.81-.66a3.55,3.55,0,0,1,.06-.64L68.29,18a3.05,3.05,0,0,0,.08-.54.57.57,0,0,0-.53-.6h-.12a1.29,1.29,0,0,0-1,.55,3.14,3.14,0,0,0-.42,1.1L66,20.18h.64l-.1.55h-2l.11-.55h.62l.62-3.29h-.62l.11-.54h1.28l-.13.68A1.59,1.59,0,0,1,68,16.24c1,0,1.18.68,1.18,1a3.23,3.23,0,0,1,0,.44Z"/><path class="cls-1" d="M72.58,14.78h1.33L73,19.66A1.82,1.82,0,0,0,73,20c0,.08,0,.25.32.25a.8.8,0,0,0,.3-.06l-.1.53a2.48,2.48,0,0,1-.54.06c-.58,0-.67-.33-.71-.58a1.74,1.74,0,0,1-.5.44,1.66,1.66,0,0,1-.82.2,1.17,1.17,0,0,1-.87-.31,1.66,1.66,0,0,1-.52-1.33,3.7,3.7,0,0,1,.78-2.3,1.78,1.78,0,0,1,1.39-.66,1.5,1.5,0,0,1,.69.17,1.23,1.23,0,0,1,.47.54l.3-1.61h-.66Zm-1.9,2.69a3.34,3.34,0,0,0-.47,1.59c0,.45.17,1.16.87,1.16a1.08,1.08,0,0,0,1-.58,3.34,3.34,0,0,0,.55-1.79c0-.7-.37-1.11-.85-1.11A1.28,1.28,0,0,0,70.68,17.47Z"/><path class="cls-1" d="M76.13,16.23a1.5,1.5,0,0,1,1.58,1.4,2.44,2.44,0,0,1,0,.27,3.7,3.7,0,0,1-.87,2.39,1.86,1.86,0,0,1-1.39.55,1.67,1.67,0,0,1-.87-.21,1.52,1.52,0,0,1-.7-1.46C73.87,18.3,74.32,16.23,76.13,16.23Zm-1.55,2.94c0,.65.3,1.11.87,1.11,1,0,1.53-1.38,1.53-2.39,0-.44-.14-1.12-.85-1.12C75,16.77,74.58,18.37,74.58,19.17Z"/><path class="cls-1" d="M81.54,19.65a1.6,1.6,0,0,0-.05.29.28.28,0,0,0,.29.28h0a.78.78,0,0,0,.33-.07l-.1.55a1.26,1.26,0,0,1-.47.08c-.48,0-.82-.2-.82-.66a4.62,4.62,0,0,1,.11-.63L81.15,18a3.05,3.05,0,0,0,.08-.54.57.57,0,0,0-.53-.6h-.12a1.29,1.29,0,0,0-1,.55,3.14,3.14,0,0,0-.42,1.1l-.33,1.71h.64l-.1.55h-2l.11-.55h.62l.62-3.29H78.1l.11-.54H79.5l-.13.68a1.59,1.59,0,0,1,1.42-.79c1,0,1.17.68,1.17,1a3.23,3.23,0,0,1,0,.44Z"/><path class="cls-1" d="M86.05,19.33a2,2,0,0,1-2,1.5,1.42,1.42,0,0,1-1.13-.36,1.59,1.59,0,0,1-.49-1.29,3.86,3.86,0,0,1,.62-2,1.91,1.91,0,0,1,1.73-.94,1.66,1.66,0,0,1,1.26.5,1.63,1.63,0,0,1,.33,1.1,4.17,4.17,0,0,1-.09.72H83.21q0,.32-.06.63a1.46,1.46,0,0,0,.12.66.84.84,0,0,0,.82.46,1.11,1.11,0,0,0,.68-.2,1.61,1.61,0,0,0,.56-.77ZM85.68,18v-.29a1.13,1.13,0,0,0-.09-.51.89.89,0,0,0-.83-.47,1.13,1.13,0,0,0-.65.17,2,2,0,0,0-.76,1.1Z"/><path class="cls-1" d="M87.52,18.38a1,1,0,0,1-.58-.95,1.41,1.41,0,0,1,2.51-.66l.1-.42h.54l-.27,1.42h-.57a1.22,1.22,0,0,0-.11-.62.81.81,0,0,0-.73-.4.7.7,0,0,0-.75.62c0,.29.21.43.43.58l.58.37c.51.34.86.63.86,1.21a1.32,1.32,0,0,1-1.35,1.31H88a1.15,1.15,0,0,1-1.09-.55l-.09.45h-.56l.27-1.5h.58a1.08,1.08,0,0,0,.12.71.77.77,0,0,0,.77.37.7.7,0,0,0,.79-.61.15.15,0,0,0,0-.07c0-.38-.29-.6-.6-.79Z"/><path class="cls-1" d="M90.52,16.35h1.35l-.64,3.33a1.13,1.13,0,0,0,0,.26.26.26,0,0,0,.22.3h.08a1.41,1.41,0,0,0,.35-.05l-.1.55a1.27,1.27,0,0,1-.51.08.72.72,0,0,1-.56-.18.64.64,0,0,1-.21-.51,1.33,1.33,0,0,1,0-.34l.55-2.89h-.64Zm.83-1.57h.86l-.13.69h-.85Z"/><path class="cls-1" d="M96.11,20.71a2,2,0,0,1-.49.06c-.56,0-.69-.23-.76-.61a1.43,1.43,0,0,1-1.29.66c-1.1,0-1.42-.93-1.42-1.71,0-1.27.75-2.87,2.12-2.87a1.28,1.28,0,0,1,1.11.54l.09.18.12-.61h.65l-.62,3.29a1.4,1.4,0,0,0,0,.29.27.27,0,0,0,.25.29,0,0,0,0,0,0,0,.87.87,0,0,0,.32-.06Zm-.94-3.31a.81.81,0,0,0-.83-.62c-1.16,0-1.49,1.81-1.49,2.37,0,.93.53,1.11.86,1.11a1.09,1.09,0,0,0,.73-.26,3.22,3.22,0,0,0,.78-2.19A1.48,1.48,0,0,0,95.17,17.4Z"/><path class="cls-1" d="M80.94,25.71a2.93,2.93,0,0,1-.62,1.23,1.61,1.61,0,0,1-1.32.53c-.94,0-1.53-.58-1.53-1.86,0-1,.53-3.67,2.33-3.67a1.11,1.11,0,0,1,1.18.81L81,23l.19-.91h.23l-.3,1.59h-.27c0-.28,0-1.47-1.08-1.47a1.57,1.57,0,0,0-1.21.68,5.43,5.43,0,0,0-.82,2.79,2,2,0,0,0,.26,1.1,1,1,0,0,0,1,.47,1.37,1.37,0,0,0,1-.41,2.48,2.48,0,0,0,.61-1.14Z"/><path class="cls-1" d="M84.35,26a1.81,1.81,0,0,1-1.7,1.45c-.9,0-1.2-.73-1.2-1.45A3.43,3.43,0,0,1,82,24.21a1.63,1.63,0,0,1,1.39-.83,1.15,1.15,0,0,1,.74.24,1.41,1.41,0,0,1,.46,1.17,3,3,0,0,1,0,.6H81.8a3,3,0,0,0-.07.66,1.8,1.8,0,0,0,.15.73.83.83,0,0,0,.8.47,1.13,1.13,0,0,0,.78-.27,2,2,0,0,0,.59-1Zm-.11-.87v-.36a1.62,1.62,0,0,0-.11-.65.84.84,0,0,0-.8-.52,1.27,1.27,0,0,0-1,.53,3.26,3.26,0,0,0-.47,1Z"/><path class="cls-1" d="M87.69,26.78a.67.67,0,0,0,0,.2c0,.22.19.24.28.24a1,1,0,0,0,.35,0v.24a2.3,2.3,0,0,1-.45.05c-.38,0-.44-.2-.44-.36a2.54,2.54,0,0,1,0-.39l.38-2a3.06,3.06,0,0,0,.06-.45c0-.54-.38-.66-.71-.66a1.33,1.33,0,0,0-1,.56,2.52,2.52,0,0,0-.58,1.26l-.34,1.75h.62v.24H84.29v-.24H85l.66-3.46H85v-.29h1l-.14.72a1.59,1.59,0,0,1,1.36-.81c.64,0,1,.35,1,.85a2.61,2.61,0,0,1-.08.56Z"/><path class="cls-1" d="M89.9,22.53l-.19.94h.89v.24h-.88l-.55,2.84c0,.11,0,.22,0,.33,0,.32.3.34.48.34h.34v.24h-.38c-.22,0-.68,0-.68-.51a3,3,0,0,1,.07-.5l.52-2.73h-.66v-.24h.67l.17-.89Z"/><path class="cls-1" d="M91.71,24a1.39,1.39,0,0,1,.44-.43,1.1,1.1,0,0,1,.56-.16h.36l-.06.29a1.71,1.71,0,0,0-.32,0,1,1,0,0,0-.84.44,2.85,2.85,0,0,0-.37,1.12l-.36,1.93h.67v.24H90.16v-.24h.63l.66-3.46h-.63v-.23h.9Z"/><path class="cls-1" d="M95.72,26A1.8,1.8,0,0,1,94,27.47c-.89,0-1.2-.73-1.2-1.45a3.55,3.55,0,0,1,.51-1.84,1.63,1.63,0,0,1,1.39-.83,1.15,1.15,0,0,1,.74.24,1.44,1.44,0,0,1,.47,1.17,5.54,5.54,0,0,1-.06.6h-2.7a3,3,0,0,0-.07.66,1.8,1.8,0,0,0,.15.73.83.83,0,0,0,.8.47,1.13,1.13,0,0,0,.78-.27,2,2,0,0,0,.59-1Zm-.11-.87v-.36a1.61,1.61,0,0,0-.1-.65.85.85,0,0,0-.81-.52,1.27,1.27,0,0,0-1,.53,3.26,3.26,0,0,0-.47,1Z"/><path class="cls-1" d="M30.39,7.65h3.54l-.29,1.57h-.27l.26-1.34H32.26l-.93,4.88H32V13H30.33l.05-.23H31l1-4.88H30.62l-.26,1.34h-.27Z"/><path class="cls-1" d="M34.37,7.65h.93l-.4,2.06A1.55,1.55,0,0,1,36.26,9a1.23,1.23,0,0,1,.65.16.8.8,0,0,1,.34.69,3.4,3.4,0,0,1-.08.57l-.36,1.86a1.31,1.31,0,0,0,0,.28c0,.25.18.26.31.26a.91.91,0,0,0,.33,0V13H37c-.2,0-.48,0-.48-.39a1.14,1.14,0,0,1,.06-.42l.25-1.75A3.4,3.4,0,0,0,37,9.83c0-.5-.37-.65-.72-.65a1.32,1.32,0,0,0-.89.34,3.08,3.08,0,0,0-.74,1.77l-.28,1.46H35V13H33.35v-.23H34l1-4.88h-.62Z"/><path class="cls-1" d="M40.58,11.61a1.8,1.8,0,0,1-1.7,1.47c-.89,0-1.2-.72-1.2-1.44a3.43,3.43,0,0,1,.51-1.84A1.63,1.63,0,0,1,39.58,9a1.15,1.15,0,0,1,.74.24,1.44,1.44,0,0,1,.47,1.16,6,6,0,0,1-.06.61H38a3,3,0,0,0-.07.66,1.75,1.75,0,0,0,.15.72.83.83,0,0,0,.8.48,1.18,1.18,0,0,0,.78-.27,2.17,2.17,0,0,0,.59-1Zm-.11-.87v-.37a1.8,1.8,0,0,0-.1-.65.85.85,0,0,0-.81-.51,1.27,1.27,0,0,0-1,.53,3,3,0,0,0-.47,1Z"/><path class="cls-2" d="M11.91,18h-.05a.08.08,0,0,1,0-.11h0C19.24,9,15.7,2.07,15.66,2a.09.09,0,0,1,0-.12.13.13,0,0,1,.12,0,10.75,10.75,0,0,1,.92,4.64c0,2.63-.86,6.75-4.75,11.43A.07.07,0,0,1,11.91,18Z"/><path class="cls-2" d="M12.87,18.26h0a.08.08,0,0,1,0-.11h0A15.54,15.54,0,0,0,17,7a12.79,12.79,0,0,0-1.24-5,.09.09,0,0,1,0-.12.13.13,0,0,1,.12,0,13.37,13.37,0,0,1,1.26,5A15.66,15.66,0,0,1,13,18.14a.1.1,0,0,1-.05.12Z"/><path class="cls-3" d="M13.84,18.54h-.06a.07.07,0,0,1,0-.12h0C20.32,10.79,15.71,2.09,15.67,2a.09.09,0,0,1,0-.12.13.13,0,0,1,.12,0,16.56,16.56,0,0,1,1.56,5.38,14.35,14.35,0,0,1-3.44,11.21A.1.1,0,0,1,13.84,18.54Z"/><path class="cls-4" d="M14.9,18.86h-.06a.08.08,0,0,1,0-.11h0c6.07-7.08.88-16.64.83-16.74a.08.08,0,0,1,.12-.12A20.52,20.52,0,0,1,17.7,7.62,13.32,13.32,0,0,1,15,18.83.08.08,0,0,1,14.9,18.86Z"/><path class="cls-4" d="M16,19.2h-.06a.09.09,0,0,1,0-.12c5.6-6.53-.23-17-.29-17.08a.08.08,0,0,1,.12-.12A25.74,25.74,0,0,1,18.06,8c.72,3.18,1,7.7-2,11.16A.06.06,0,0,1,16,19.2Z"/><path class="cls-5" d="M17.22,19.47a.06.06,0,0,1-.06,0,.08.08,0,0,1,0-.11h0c5.13-6-1.43-17.26-1.49-17.37a.1.1,0,0,1,0-.13.09.09,0,0,1,.12,0A30.56,30.56,0,0,1,18.5,8.32c1.35,4.75.92,8.59-1.24,11.1C17.26,19.45,17.24,19.46,17.22,19.47Z"/><path class="cls-6" d="M18.5,19.92h-.06a.09.09,0,0,1,0-.12C22.83,15,15.73,2.14,15.66,2a.08.08,0,1,1,.12-.12A44.12,44.12,0,0,1,18.85,9c1.15,3.54,2,8.3-.31,10.89C18.53,19.9,18.52,19.92,18.5,19.92Z"/><path class="cls-7" d="M19.86,20.22H19.8a.08.08,0,0,1,0-.12h0c3.52-4.32-4.06-18-4.13-18.09a.08.08,0,0,1,.12-.12,61,61,0,0,1,3.42,7.45c2,5.33,2.21,9,.69,10.84C19.9,20.2,19.88,20.21,19.86,20.22Z"/><path class="cls-8" d="M21.28,20.52h-.05a.08.08,0,0,1,0-.11h0C23.85,16.67,15.76,2.15,15.68,2a.08.08,0,1,1,.12-.12A81.53,81.53,0,0,1,19.58,9.7c2.3,5.53,2.9,9.15,1.77,10.76A.11.11,0,0,1,21.28,20.52Z"/><path class="cls-9" d="M22.45,16.84a.08.08,0,0,1-.09-.06c-1.24-4.91-6.65-14.7-6.7-14.8a.08.08,0,1,1,.12-.12c0,.1,5.48,9.9,6.72,14.83a.08.08,0,0,1,0,.11h0Z"/><path class="cls-10" d="M23.1,15.65A.08.08,0,0,1,23,15.6L15.65,2a.09.09,0,0,1,0-.12.13.13,0,0,1,.12,0l7.41,13.61a.09.09,0,0,1,0,.12Z"/><path class="cls-10" d="M22.63,17.24a.07.07,0,0,1-.08,0L15.65,2a.09.09,0,0,1,0-.12.08.08,0,0,1,.11,0l6.9,15.21a.09.09,0,0,1-.05.12h0Z"/><path class="cls-10" d="M22,18.8a.08.08,0,0,1-.08-.06L15.65,2a.08.08,0,0,1,0-.11.09.09,0,0,1,.12,0l6.3,16.77a.09.09,0,0,1-.06.11Z"/><path class="cls-10" d="M21.3,20.59a.08.08,0,0,1-.08-.07L15.65,2a.07.07,0,0,1,0-.1h0a.11.11,0,0,1,.11,0l5.57,18.61a.09.09,0,0,1-.06.11Z"/><path class="cls-10" d="M20.56,23.31a.1.1,0,0,1-.09-.07L15.65,2a.1.1,0,0,1,.06-.11.09.09,0,0,1,.11.07h0L20.64,23.2a.09.09,0,0,1-.06.11Z"/><path class="cls-10" d="M19.07,23.58a.09.09,0,0,1-.07-.11L15.65,2a.09.09,0,0,1,.07-.1.11.11,0,0,1,.1.08l3.34,21.54a.08.08,0,0,1-.07.1Z"/><path class="cls-10" d="M17.59,23.86a.09.09,0,0,1-.09-.08L15.64,2a.11.11,0,0,1,.09-.1.1.1,0,0,1,.09.08l1.86,21.83a.1.1,0,0,1-.08.1Z"/><path class="cls-10" d="M16.1,24.13A.08.08,0,0,1,16,24l-.38-22.1a.09.09,0,0,1,.09-.09h0a.09.09,0,0,1,.09.09h0L16.19,24a.08.08,0,0,1-.08.09Z"/><path class="cls-10" d="M14.62,24.4h0a.09.09,0,0,1-.09-.09h0L15.64,1.94a.12.12,0,0,1,.1-.09.09.09,0,0,1,.08.09L14.71,24.32a.08.08,0,0,1-.08.08Z"/><path class="cls-10" d="M13.14,24.68h0a.08.08,0,0,1-.08-.09h0L15.65,1.93a.11.11,0,0,1,.1-.08.09.09,0,0,1,.08.1h0L13.23,24.6A.09.09,0,0,1,13.14,24.68Z"/><path class="cls-10" d="M11.65,25h0a.11.11,0,0,1-.08-.11L15.66,1.92s0-.07.1-.07a.09.09,0,0,1,.07.11h0L11.74,24.88A.1.1,0,0,1,11.65,25Z"/><path class="cls-10" d="M10.17,25.22h0a.08.08,0,0,1-.07-.1h0L15.67,1.92a.1.1,0,0,1,.1-.07.1.1,0,0,1,.07.11L10.25,25.15A.08.08,0,0,1,10.17,25.22Z"/><path class="cls-10" d="M8.68,25.47h0a.08.08,0,0,1-.07-.09v0L15.67,1.89a.08.08,0,0,1,.11,0,.1.1,0,0,1,.06.11L8.77,25.47A.07.07,0,0,1,8.68,25.47Z"/><path class="cls-10" d="M7.2,25.77h0a.08.08,0,0,1,0-.11L15.73,1.92a.08.08,0,0,1,.11,0A.1.1,0,0,1,15.9,2L7.28,25.71S7.24,25.78,7.2,25.77Z"/><path class="cls-10" d="M5.71,26h0a.08.08,0,0,1,0-.11l10-24a.09.09,0,0,1,.12,0,.08.08,0,0,1,0,.11l-10,24A.09.09,0,0,1,5.71,26Z"/><path class="cls-10" d="M4.23,26.31h0a.09.09,0,0,1,0-.12L15.73,1.9a.13.13,0,0,1,.12,0,.09.09,0,0,1,0,.12L4.31,26.26A.06.06,0,0,1,4.23,26.31Z"/><path class="cls-10" d="M2.75,26.59h0a.09.09,0,0,1,0-.12l13-24.56a.13.13,0,0,1,.12,0,.09.09,0,0,1,0,.12l-13,24.56a.07.07,0,0,1-.11,0Z"/><polygon class="cls-2" points="25.58 7.65 18.38 27.43 19.19 27.43 26.38 7.65 25.58 7.65"/></svg>