<svg id="Layer_1" data-name="Layer 1" xmlns="http://www.w3.org/2000/svg" xmlns:xlink="http://www.w3.org/1999/xlink" viewBox="0 0 84.02 28.73"><defs><style>.cls-1{fill:#fff;}.cls-2{fill:#122b4f;}.cls-3{fill:url(#linear-gradient);}</style><linearGradient id="linear-gradient" x1="53.27" y1="13.13" x2="74.76" y2="13.13" gradientUnits="userSpaceOnUse"><stop offset="0" stop-color="#4a9ad2"/><stop offset="0.23" stop-color="#2bace2"/><stop offset="0.43" stop-color="#2bace2"/><stop offset="0.55" stop-color="#29aae1"/><stop offset="1" stop-color="#61cae6"/></linearGradient></defs><title>Digital-economy-logo</title><path class="cls-1" d="M6.55,1.44c3.33,0,4.58,1.75,4.58,4.62s-1.54,5-5.36,5h-3v-.63l.53,0c.41,0,.5-.11.5-.85V3.11c0-.77-.06-1-.51-1l-.51,0V1.44Zm-.4,8.82c2.69,0,3.6-1.94,3.6-4.21,0-2.53-1-3.82-3-3.82H5.12v8Z"/><path class="cls-1" d="M14.28,9.37c0,.86.05,1,.47,1.06l.48.06v.57H12.14v-.57l.43-.06c.46,0,.53-.17.53-1.06V5.81c0-.61-.19-.79-.65-.87l-.39-.06.08-.55,1.94-.24.2.1Zm-.77-6.66a.78.78,0,0,1-.86-.85A.76.76,0,0,1,13.51,1a.77.77,0,0,1,.88.82A.78.78,0,0,1,13.51,2.71Z"/><path class="cls-1" d="M21.1,5.06a2,2,0,0,1,.53,1.41A2.37,2.37,0,0,1,19,8.77a4.49,4.49,0,0,1-1-.1l-.48,1.1,2.55.12c1.2,0,2.1.45,2.1,1.61,0,1.5-1.58,2.12-3.49,2.12-.89,0-2.68-.2-2.68-1.54a1.63,1.63,0,0,1,.93-1.38.62.62,0,0,1-.52-.63,1.45,1.45,0,0,1,.36-.82l.59-.84a2,2,0,0,1-1.1-1.87A2.49,2.49,0,0,1,18.89,4a3,3,0,0,1,1.38.29l1.64-.12.09.66Zm-1.37,5.88-2.06-.09a1.46,1.46,0,0,0-.53,1c0,.54.54.88,1.81.88.77,0,2.07-.15,2.07-1C21,11.19,20.66,11,19.73,10.94ZM19,4.81a1.42,1.42,0,0,0-1.51,1.58c0,1.27.69,1.59,1.46,1.59a1.36,1.36,0,0,0,1.51-1.55C20.43,5.28,19.88,4.81,19,4.81Z"/><path class="cls-1" d="M25.25,9.37c0,.86.05,1,.46,1.06l.48.06v.57H23.11v-.57l.43-.06c.46,0,.53-.17.53-1.06V5.81c0-.61-.19-.79-.65-.87L23,4.88l.08-.55,1.94-.24.2.1Zm-.77-6.66a.78.78,0,0,1-.86-.85A.76.76,0,0,1,24.48,1a.77.77,0,0,1,.88.82A.78.78,0,0,1,24.48,2.71Z"/><path class="cls-1" d="M31.26,10.63a3.32,3.32,0,0,1-1.84.57c-1.07,0-1.54-.63-1.54-1.86V4.94H26.8l.08-.65L28,4.15l.44-1.65h.67V4.16h1.78l-.1.78H29.06V9.16c0,.81.24,1.14.81,1.14A2.54,2.54,0,0,0,31,10Z"/><path class="cls-1" d="M37.88,11a2.06,2.06,0,0,1-.9.19,1.05,1.05,0,0,1-1.16-1,2.21,2.21,0,0,1-1.94,1c-1.52,0-2-.82-2-1.86,0-1.74,1.51-2.12,3.86-2.22V6.39c0-1.06-.36-1.45-1.26-1.45a4.54,4.54,0,0,0-2,.43l-.24-.65A4.65,4.65,0,0,1,34.7,4c1.35,0,2.19.54,2.19,2.33V9.78c0,.55.06.65.53.71l.42,0ZM35.72,7.87c-1.86,0-2.58.34-2.58,1.37a1,1,0,0,0,1.14,1.09A1.33,1.33,0,0,0,35.72,9Z"/><path class="cls-1" d="M40.67,9.37c0,.86.06,1,.47,1.06l.48.06v.57H38.53v-.57l.43-.06c.46,0,.53-.17.53-1.06V2.9c0-.61-.17-.81-.65-.89l-.39-.07.08-.54,1.85-.24.29.16Z"/><path class="cls-1" d="M9.15,17.19l-.78,0-.3-1a.77.77,0,0,0-.86-.68H5.12v3.54H8.23v.78H5.12v3.71H7.48a.75.75,0,0,0,.86-.65l.29-1.08h.76l-.15,2.53H2.8v-.63l.54-.05c.48-.06.49-.18.49-1.07V16.39c0-.77-.08-.93-.53-1l-.49-.05v-.63H9Z"/><path class="cls-1" d="M15.82,23.67a3.62,3.62,0,0,1-2.4.86c-2.11,0-3.14-1.62-3.14-3.49,0-2.59,1.52-3.7,3.42-3.7a4.14,4.14,0,0,1,2.08.59l-.1,1.86-.85-.08-.19-.87c-.06-.42-.33-.65-1.05-.65-1.19,0-2,.83-2,2.63,0,2.08,1.07,2.76,2.23,2.76a3.33,3.33,0,0,0,1.67-.44Z"/><path class="cls-1" d="M16.44,20.9c0-2.17,1.18-3.59,3.22-3.59s3,1.45,3,3.58S21.59,24.5,19.5,24.5,16.44,23.07,16.44,20.9Zm4.93,0c0-1.93-.65-2.81-1.78-2.81s-1.86.85-1.86,2.82.71,2.86,1.83,2.86S21.37,22.89,21.37,20.89Z"/><path class="cls-1" d="M25.47,22.67c0,.86,0,1,.47,1.07l.37.06v.56h-3v-.58l.42-.05c.47-.05.54-.17.54-1.06V19.12c0-.61-.19-.81-.66-.89l-.38-.07.08-.54,1.74-.23.19.08.11.92a3.45,3.45,0,0,1,2.4-1.08c1.18,0,2,.59,2,2.41v3c0,.85.07,1,.53,1.06l.47.07v.56h-3V23.8l.38-.06c.41,0,.43-.22.43-1V19.82c0-.94-.39-1.49-1.31-1.49a3.58,3.58,0,0,0-1.83.62Z"/><path class="cls-1" d="M31.2,20.9c0-2.17,1.18-3.59,3.21-3.59s3,1.45,3,3.58-1.08,3.61-3.17,3.61S31.2,23.07,31.2,20.9Zm4.93,0c0-1.93-.65-2.81-1.78-2.81s-1.86.85-1.86,2.82.7,2.86,1.83,2.86S36.13,22.89,36.13,20.89Z"/><path class="cls-1" d="M40.08,22.67c0,.86,0,1,.46,1.07l.4.06v.56h-3v-.58l.42-.05c.47-.05.53-.17.53-1.06V19.12c0-.61-.18-.81-.65-.89l-.38-.07.08-.54,1.73-.23.18.08.12.92a3.35,3.35,0,0,1,2.29-1.08A1.7,1.7,0,0,1,44,18.41a3.36,3.36,0,0,1,2.39-1.1c1.13,0,2,.59,2,2.41v3c0,.85.07,1,.54,1.06l.46.07v.56h-3V23.8l.39-.06c.39-.06.42-.22.42-1v-2.9c0-1-.4-1.49-1.18-1.49a3.53,3.53,0,0,0-1.82.61,4.35,4.35,0,0,1,.05.75v3c0,.87,0,1,.44,1.07l.36.06v.56H42.26V23.8l.34-.06c.4-.06.43-.22.43-1v-2.9c0-1-.4-1.49-1.14-1.49a3.47,3.47,0,0,0-1.81.61Z"/><path class="cls-1" d="M53,24.13c-.81,2-1.12,2.58-2,2.75a2.42,2.42,0,0,1-.47,0,2.37,2.37,0,0,1-1.37-.43l.31-.7a3.35,3.35,0,0,0,.94.17c.81,0,1.16-.38,1.76-1.84L50,18.85c-.22-.53-.36-.66-.65-.73l-.32-.06.12-.6H52v.6l-.92.1,1.7,4.47h0l1.76-4.47-1-.1.1-.6h2.44V18l-.2,0c-.44.05-.52.21-.81.93Z"/><path class="cls-2" d="M70.71,24.25,80.76,18.7c1.91-1.06,1.71-1.66-.45-1.34L65.72,19.51a2.83,2.83,0,0,0-1.57.68l4.15,4.62A4.74,4.74,0,0,0,70.71,24.25Z"/><path class="cls-3" d="M69.53,1.86l-13.13,5C52.86,8.17,52.23,11.38,55,14l10.15,9.41c2.78,2.58,5.67,1.65,6.42-2.07l3-15.11C75.37,2.46,73.08.52,69.53,1.86ZM67.4,19.33,58.31,10.9,70,6.48Z"/></svg>