<svg id="Layer_1" data-name="Layer 1" xmlns="http://www.w3.org/2000/svg" xmlns:xlink="http://www.w3.org/1999/xlink" viewBox="0 0 82.33 29.88"><defs><style>.cls-1{fill:#13294f;}.cls-2{fill:#122b4f;}.cls-3{fill:url(#linear-gradient);}</style><linearGradient id="linear-gradient" x1="52.09" y1="15.8" x2="73.58" y2="15.8" gradientUnits="userSpaceOnUse"><stop offset="0" stop-color="#4a9ad2"/><stop offset="0.23" stop-color="#2bace2"/><stop offset="0.43" stop-color="#2bace2"/><stop offset="0.55" stop-color="#29aae1"/><stop offset="1" stop-color="#61cae6"/></linearGradient></defs><title>digital-ecomony-p</title><path class="cls-1" d="M5.36,4.11c3.33,0,4.58,1.75,4.58,4.62s-1.54,5-5.35,5h-3v-.62l.53-.06c.41,0,.51-.1.51-.85V5.79c0-.78-.07-1-.52-1l-.51,0V4.11ZM5,12.93c2.7,0,3.6-1.94,3.6-4.21,0-2.52-1-3.81-3-3.81H3.94v8Z"/><path class="cls-1" d="M13.09,12c0,.87.06,1,.47,1.07l.48.05v.57H11v-.57l.43-.05c.47-.06.53-.18.53-1.07V8.48c0-.61-.18-.78-.65-.86l-.38-.07L11,7l2-.24.19.09Zm-.77-6.65a.78.78,0,0,1-.86-.85.77.77,0,0,1,.86-.83.77.77,0,0,1,.88.83A.78.78,0,0,1,12.32,5.39Z"/><path class="cls-1" d="M19.91,7.74a2,2,0,0,1,.53,1.41,2.37,2.37,0,0,1-2.64,2.3,4.45,4.45,0,0,1-1-.11l-.47,1.1,2.55.12c1.19.06,2.1.45,2.1,1.61,0,1.5-1.58,2.13-3.5,2.13-.89,0-2.68-.2-2.68-1.55a1.65,1.65,0,0,1,.93-1.38c-.37-.12-.52-.33-.52-.62a1.47,1.47,0,0,1,.36-.83l.6-.83a2,2,0,0,1-1.11-1.88A2.49,2.49,0,0,1,17.7,6.69,3.18,3.18,0,0,1,19.09,7l1.63-.12.09.67Zm-1.37,5.87-2.06-.09a1.5,1.5,0,0,0-.53,1c0,.55.55.88,1.81.88.77,0,2.07-.15,2.07-1C19.83,13.87,19.47,13.66,18.54,13.61Zm-.76-6.12a1.41,1.41,0,0,0-1.51,1.58c0,1.26.69,1.58,1.46,1.58a1.37,1.37,0,0,0,1.52-1.54C19.25,8,18.69,7.49,17.78,7.49Z"/><path class="cls-1" d="M24.06,12c0,.87.06,1,.47,1.07l.48.05v.57H21.92v-.57l.43-.05c.46-.06.53-.18.53-1.07V8.48c0-.61-.19-.78-.65-.86l-.39-.07L21.92,7l1.94-.24.2.09Zm-.77-6.65a.78.78,0,0,1-.86-.85.87.87,0,0,1,1.74,0A.78.78,0,0,1,23.29,5.39Z"/><path class="cls-1" d="M30.07,13.31a3.4,3.4,0,0,1-1.84.57c-1.07,0-1.54-.64-1.54-1.86V7.62H25.62L25.7,7l1.06-.15.44-1.65h.68V6.83h1.78l-.11.79H27.88v4.21c0,.81.24,1.14.81,1.14a2.54,2.54,0,0,0,1.1-.27Z"/><path class="cls-1" d="M36.7,13.68a2,2,0,0,1-.91.2,1,1,0,0,1-1.15-1,2.21,2.21,0,0,1-1.94,1c-1.53,0-2-.83-2-1.86,0-1.74,1.5-2.13,3.85-2.22V9.07c0-1.07-.36-1.45-1.26-1.45a4.67,4.67,0,0,0-2,.42l-.24-.65a4.74,4.74,0,0,1,2.46-.7c1.35,0,2.19.54,2.19,2.34v3.43c0,.54.07.65.53.7l.43.05Zm-2.17-3.14c-1.86,0-2.58.35-2.58,1.37A1,1,0,0,0,33.1,13a1.33,1.33,0,0,0,1.43-1.37Z"/><path class="cls-1" d="M39.49,12c0,.87,0,1,.46,1.07l.48.05v.57H37.35v-.57l.42-.05c.47-.06.53-.18.53-1.07V5.57c0-.61-.17-.81-.65-.89l-.38-.06.08-.55,1.84-.24.3.16Z"/><path class="cls-1" d="M8,19.87l-.78,0-.29-1A.78.78,0,0,0,6,18.2H3.94v3.54H7.05v.78H3.94v3.71H6.29a.75.75,0,0,0,.86-.65l.29-1.08H8.2L8.06,27H1.61V26.4l.55,0c.47-.05.49-.17.49-1.06V19.07c0-.77-.08-.93-.53-1l-.5,0v-.62H7.83Z"/><path class="cls-1" d="M14.64,26.34a3.68,3.68,0,0,1-2.41.87c-2.11,0-3.13-1.62-3.13-3.5,0-2.59,1.51-3.69,3.41-3.69a4.21,4.21,0,0,1,2.09.58l-.11,1.86-.85-.08-.19-.86c-.06-.43-.33-.65-1-.65-1.19,0-2,.82-2,2.63,0,2.07,1.06,2.75,2.23,2.75a3.2,3.2,0,0,0,1.66-.44Z"/><path class="cls-1" d="M15.25,23.57c0-2.16,1.19-3.58,3.22-3.58s3,1.44,3,3.57-1.07,3.61-3.16,3.61S15.25,25.74,15.25,23.57Zm4.94,0c0-1.93-.66-2.8-1.79-2.8s-1.86.85-1.86,2.81.71,2.86,1.84,2.86S20.19,25.57,20.19,23.56Z"/><path class="cls-1" d="M24.28,25.34c0,.86,0,1,.47,1.08l.37,0V27h-3v-.57l.43-.06c.46,0,.53-.17.53-1.06V21.79c0-.61-.19-.81-.65-.89l-.39-.06.08-.55,1.74-.23.19.08.12.92A3.4,3.4,0,0,1,26.57,20c1.18,0,2,.58,2,2.4v2.95c0,.85.07,1,.53,1.06l.47.07V27h-3v-.56l.39,0c.41-.06.42-.23.42-1V22.5c0-.95-.39-1.49-1.3-1.49a3.63,3.63,0,0,0-1.84.61Z"/><path class="cls-1" d="M30,23.57C30,21.41,31.19,20,33.23,20s3,1.44,3,3.57-1.08,3.61-3.16,3.61S30,25.74,30,23.57Zm4.93,0c0-1.93-.65-2.8-1.78-2.8s-1.86.85-1.86,2.81.7,2.86,1.83,2.86S34.94,25.57,34.94,23.56Z"/><path class="cls-1" d="M38.89,25.34c0,.86,0,1,.47,1.08l.39,0V27h-3v-.57l.43-.06c.46,0,.53-.17.53-1.06V21.79c0-.61-.19-.81-.65-.89l-.39-.06.08-.55,1.73-.23.18.08.12.92A3.34,3.34,0,0,1,41.07,20a1.7,1.7,0,0,1,1.74,1.1A3.34,3.34,0,0,1,45.2,20c1.13,0,2,.58,2,2.4v2.95c0,.85.06,1,.53,1.06l.46.07V27h-3v-.56l.39,0c.4-.07.42-.23.42-1v-2.9c0-1-.4-1.48-1.18-1.48a3.53,3.53,0,0,0-1.82.61,4.17,4.17,0,0,1,.05.74v2.95c0,.88,0,1,.44,1.08l.36,0V27H41.07v-.56l.35,0c.39-.07.42-.23.42-1v-2.9c0-1-.4-1.48-1.14-1.48a3.5,3.5,0,0,0-1.81.61Z"/><path class="cls-1" d="M51.81,26.8c-.81,2-1.11,2.58-2,2.75a2.42,2.42,0,0,1-.47,0A2.38,2.38,0,0,1,48,29.17l.3-.71a3.41,3.41,0,0,0,.94.18c.82,0,1.16-.39,1.76-1.85l-2.15-5.26c-.23-.53-.36-.67-.65-.73l-.32-.07.12-.6H50.8v.6l-.91.11,1.7,4.46h0l1.76-4.46-1-.11.1-.6h2.44v.59l-.2,0c-.44.06-.51.22-.81.93Z"/><path class="cls-2" d="M69.53,26.93l10-5.56c1.91-1.05,1.71-1.66-.45-1.34L64.53,22.18a2.9,2.9,0,0,0-1.57.69l4.15,4.62A4.8,4.8,0,0,0,69.53,26.93Z"/><path class="cls-3" d="M68.35,4.53l-13.13,5c-3.55,1.34-4.18,4.55-1.4,7.13L64,26c2.78,2.58,5.67,1.65,6.42-2.07l3-15.1C74.18,5.14,71.89,3.19,68.35,4.53ZM66.21,22l-9.09-8.43L68.8,9.15Z"/></svg>