<?xml version="1.0" encoding="utf-8"?>
<!-- Generator: Adobe Illustrator 23.0.1, SVG Export Plug-In . SVG Version: 6.00 Build 0)  -->
<svg version="1.1"
	 id="Layer_1" xmlns:cc="http://creativecommons.org/ns#" xmlns:dc="http://purl.org/dc/elements/1.1/" xmlns:inkscape="http://www.inkscape.org/namespaces/inkscape" xmlns:rdf="http://www.w3.org/1999/02/22-rdf-syntax-ns#" xmlns:sodipodi="http://sodipodi.sourceforge.net/DTD/sodipodi-0.dtd" xmlns:svg="http://www.w3.org/2000/svg"
	 xmlns="http://www.w3.org/2000/svg" xmlns:xlink="http://www.w3.org/1999/xlink" x="0px" y="0px" viewBox="0 0 100 100"
	 style="enable-background:new 0 0 100 100;" xml:space="preserve">
<style type="text/css">
	.st0{fill:#FFFFFF;}
</style>
<g>
	<g>
		<path class="st0" d="M90,25.2c-2.9,1.3-6.1,2.2-9.4,2.6c3.4-2,6-5.3,7.2-9.1c-3.2,1.9-6.7,3.2-10.4,4c-3-3.2-7.3-5.2-12-5.2
			c-9.1,0-16.4,7.4-16.4,16.4c0,1.3,0.1,2.5,0.4,3.7C35.7,37,23.6,30.4,15.5,20.5c-1.4,2.4-2.2,5.2-2.2,8.3c0,5.7,2.9,10.7,7.3,13.7
			c-2.7-0.1-5.2-0.8-7.4-2.1v0.2c0,8,5.7,14.6,13.2,16.1C25,57,23.5,57.2,22,57.2c-1.1,0-2.1-0.1-3.1-0.3
			c2.1,6.5,8.2,11.3,15.3,11.4c-5.6,4.4-12.7,7-20.4,7c-1.3,0-2.6-0.1-3.9-0.2c7.3,4.7,15.9,7.4,25.2,7.4c30.2,0,46.7-25,46.7-46.7
			l-0.1-2.1C85.1,31.4,87.9,28.5,90,25.2z"/>
	</g>
</g>
</svg>
