<svg id="Layer_1" data-name="Layer 1" xmlns="http://www.w3.org/2000/svg" viewBox="0 0 98.5 78.63"><defs><style>.cls-1{fill:#fff;}</style></defs><title>yt-icon</title><path class="cls-1" d="M63.93,39.31,40,53.15V25.48Zm31.38,0s0-15-1.93-22.19A11.55,11.55,0,0,0,85.23,9C78,7,49.2,7,49.2,7S20.36,7,13.17,9A11.51,11.51,0,0,0,5,17.12C3.09,24.31,3.09,39.31,3.09,39.31s0,15,1.93,22.2a11.51,11.51,0,0,0,8.15,8.15c7.19,1.93,36,1.93,36,1.93s28.84,0,36-1.93a11.55,11.55,0,0,0,8.15-8.15c1.93-7.19,1.93-22.2,1.93-22.2"/></svg>