<?xml version="1.0" encoding="utf-8"?>
<!-- Generator: Adobe Illustrator 21.1.0, SVG Export Plug-In . SVG Version: 6.00 Build 0)  -->
<svg version="1.1" id="Layer_1" xmlns="http://www.w3.org/2000/svg" xmlns:xlink="http://www.w3.org/1999/xlink" x="0px" y="0px"
	 viewBox="0 0 512 512" style="enable-background:new 0 0 512 512;" xml:space="preserve">
<style type="text/css">
	.st0{fill:#FFFFFF;}
</style>
<g>
	<g>
		<path class="st0" d="M405.3,90.3H106.7C77.1,90.3,53,114.4,53,144V368c0,29.6,24.1,53.7,53.7,53.7h298.6
			c29.6,0,53.7-24.1,53.7-53.7V144C459,114.4,434.9,90.3,405.3,90.3z M426.2,368c0,11.5-9.4,20.9-20.9,20.9H106.7
			c-11.5,0-20.9-9.4-20.9-20.9V144c0-11.5,9.4-20.9,20.9-20.9h298.6c11.5,0,20.9,9.4,20.9,20.9L426.2,368L426.2,368z"/>
	</g>
</g>
<g>
	<g>
		<path class="st0" d="M456,134.6c-5.2-7.4-15.4-9.2-22.8-4L256,254.6l-177.2-124c-7.4-5.2-17.6-3.4-22.8,4
			c-5.2,7.4-3.4,17.6,4,22.8l186.6,130.6c2.8,2,6.1,3,9.4,3c3.3,0,6.6-1,9.4-3L452,157.5C459.4,152.3,461.2,142.1,456,134.6z"/>
	</g>
</g>
</svg>
