<svg id="Layer_1" data-name="Layer 1" xmlns="http://www.w3.org/2000/svg" viewBox="0 0 78.63 78.63"><defs><style>.cls-1{fill:#fff;}</style></defs><title>li-icon</title><path class="cls-1" d="M66.38,66.37H55V48.54c0-4.25-.07-9.72-5.92-9.72s-6.84,4.63-6.84,9.41V66.37H30.84V29.7H41.76v5h.16A12,12,0,0,1,52.7,28.79c11.55,0,13.68,7.59,13.68,17.47ZM18,24.69a6.61,6.61,0,1,1,6.6-6.61A6.61,6.61,0,0,1,18,24.69m5.7,41.68H12.28V29.7H23.69ZM72.06.89H6.56A5.61,5.61,0,0,0,.89,6.43V72.19a5.62,5.62,0,0,0,5.67,5.55h65.5a5.62,5.62,0,0,0,5.68-5.55V6.43A5.62,5.62,0,0,0,72.06.89"/></svg>