<?xml version="1.0" encoding="utf-8"?>
<!-- Generator: Adobe Illustrator 21.0.0, SVG Export Plug-In . SVG Version: 6.00 Build 0)  -->
<svg version="1.1" id="Layer_1" xmlns="http://www.w3.org/2000/svg" xmlns:xlink="http://www.w3.org/1999/xlink" x="0px" y="0px"
	 viewBox="0 0 78.6 78.6" style="enable-background:new 0 0 78.6 78.6;" xml:space="preserve">
<style type="text/css">
	.st0{fill:#808285;}
</style>
<title>icon-inst</title>
<path class="st0" d="M39.2,0.9c-10.5,0-11.8,0-15.9,0.2C20.1,1.2,17,1.8,14,2.9c-2.6,1-4.9,2.5-6.8,4.4c-2,1.9-3.5,4.3-4.4,6.8
	c-1.1,3-1.7,6.1-1.8,9.3c-0.2,4.1-0.2,5.4-0.2,15.9s0,11.8,0.2,15.9c0.1,3.2,0.7,6.4,1.8,9.3c1,2.6,2.5,4.9,4.4,6.8
	c1.9,2,4.3,3.5,6.8,4.4c3,1.1,6.1,1.7,9.3,1.8c4.1,0.2,5.4,0.2,15.9,0.2s11.8,0,15.9-0.2c3.2-0.1,6.4-0.7,9.3-1.8
	c5.2-2,9.2-6.1,11.2-11.3c1.1-3,1.7-6.1,1.8-9.3c0.2-4.1,0.2-5.4,0.2-15.9s0-11.8-0.2-15.9c-0.1-3.2-0.7-6.4-1.8-9.3
	c-1-2.6-2.5-4.9-4.4-6.8c-1.9-2-4.3-3.5-6.8-4.4c-3-1.1-6.1-1.7-9.3-1.8C51,1,49.6,0.9,39.2,0.9z M39.2,7.8c10.3,0,11.5,0,15.5,0.2
	c2.4,0,4.9,0.5,7.2,1.3c1.7,0.6,3.2,1.6,4.4,2.9c1.3,1.2,2.3,2.8,2.9,4.4c0.9,2.3,1.3,4.7,1.3,7.1c0.2,4.1,0.2,5.3,0.2,15.5
	s0,11.5-0.2,15.5c0,2.4-0.5,4.9-1.3,7.2c-1.3,3.4-3.9,6-7.3,7.3c-2.3,0.9-4.7,1.3-7.2,1.3c-4.1,0.2-5.3,0.2-15.5,0.2
	s-11.5,0-15.5-0.2c-2.4,0-4.9-0.5-7.1-1.3c-1.7-0.6-3.2-1.6-4.4-2.9c-1.3-1.2-2.3-2.8-2.9-4.4c-0.8-2.3-1.3-4.7-1.3-7.1
	c-0.2-4.1-0.2-5.3-0.2-15.5s0-11.5,0.2-15.5c0-2.5,0.5-4.9,1.3-7.2c0.6-1.7,1.6-3.2,2.9-4.4c1.2-1.3,2.8-2.3,4.4-2.9
	c2.3-0.8,4.7-1.3,7.1-1.3C27.7,7.9,28.9,7.8,39.2,7.8"/>
<path class="st0" d="M39.2,52.2c-7.1,0-12.8-5.7-12.8-12.8s5.7-12.8,12.8-12.8c7.1,0,12.8,5.7,12.8,12.8c0,0,0,0,0,0
	C52,46.5,46.3,52.2,39.2,52.2z M39.2,19.6c-10.9,0-19.8,8.9-19.7,19.8c0,10.9,8.9,19.8,19.8,19.7c10.9,0,19.7-8.9,19.7-19.8
	C59,28.5,50.1,19.6,39.2,19.6C39.2,19.6,39.2,19.6,39.2,19.6L39.2,19.6z"/>
<path class="st0" d="M64.3,18.8c0,2.6-2.1,4.6-4.6,4.6s-4.6-2.1-4.6-4.6s2.1-4.6,4.6-4.6l0,0C62.3,14.2,64.3,16.3,64.3,18.8z"/>
</svg>
