<?xml version="1.0" encoding="utf-8"?>
<!-- Generator: Adobe Illustrator 21.0.0, SVG Export Plug-In . SVG Version: 6.00 Build 0)  -->
<svg version="1.1" id="Layer_1" xmlns="http://www.w3.org/2000/svg" xmlns:xlink="http://www.w3.org/1999/xlink" x="0px" y="0px"
	 viewBox="0 0 78.6 78.6" style="enable-background:new 0 0 78.6 78.6;" xml:space="preserve">
<style type="text/css">
	.st0{fill:#808285;}
</style>
<title>icon-mail</title>
<path class="st0" d="M7.6,32.3c1,0.7,4,2.8,9,6.2c5,3.5,8.8,6.1,11.5,8l1.9,1.3c1,0.7,1.7,1.2,2.4,1.7c0.6,0.4,1.4,0.9,2.3,1.4
	c0.8,0.5,1.6,0.9,2.5,1.2c0.7,0.2,1.4,0.4,2.2,0.4h0.1c0.7,0,1.5-0.1,2.2-0.4c0.9-0.3,1.7-0.7,2.5-1.2c0.9-0.5,1.7-1,2.3-1.4
	c0.6-0.4,1.4-1,2.4-1.7l1.9-1.3l20.5-14.2c2.1-1.5,3.9-3.3,5.3-5.4c1.4-1.9,2.1-4.2,2.2-6.6c0-1.9-0.7-3.7-2.1-5
	c-1.3-1.3-3.1-2.1-4.9-2.1H7c-2-0.1-3.9,0.7-5.2,2.3c-1.3,1.6-1.9,3.7-1.8,5.7c0.1,2.2,1,4.3,2.4,6C3.8,29.2,5.6,30.9,7.6,32.3z"/>
<path class="st0" d="M74.2,37c-9.6,6.5-16.9,11.6-21.8,15.2c-1.7,1.2-3,2.2-4.1,2.8c-1.3,0.8-2.7,1.5-4.2,2.1
	c-1.5,0.7-3.2,1-4.8,1.1h-0.1c-1.7,0-3.3-0.4-4.8-1.1c-1.4-0.6-2.8-1.3-4.1-2.1c-1-0.7-2.4-1.6-4.1-2.9C22.3,49.3,15,44.2,4.4,37
	c-1.6-1.1-3.1-2.3-4.4-3.8V68c0,1.9,0.7,3.7,2.1,5c1.3,1.4,3.1,2.1,5,2.1h64.6c3.9,0,7-3.1,7-7l0,0V33.2
	C77.3,34.6,75.8,35.9,74.2,37z"/>
</svg>
