<svg id="Layer_1" data-name="Layer 1" xmlns="http://www.w3.org/2000/svg" xmlns:xlink="http://www.w3.org/1999/xlink" viewBox="0 0 86.06 44.57"><defs><style>.cls-1{fill:url(#linear-gradient);}.cls-2{fill:#d7de28;}.cls-3{fill:#fff;}</style><linearGradient id="linear-gradient" x1="23.63" y1="24.67" x2="61.44" y2="24.67" gradientUnits="userSpaceOnUse"><stop offset="0" stop-color="#d7df28"/><stop offset="0.16" stop-color="#d7df28"/><stop offset="1" stop-color="#61cae6"/></linearGradient></defs><title>skills-futures-logo</title><path class="cls-1" d="M34.52,42.25A9.53,9.53,0,0,1,28,36.42s-.94-2.33-2-10.55-.79-10.7-.79-10.72a9,9,0,0,1,9.17-8.3A13.39,13.39,0,0,1,40,8.19L53.93,14.7c3.45,1.61,5.55,4.05,5.92,6.86s-1,5.69-3.94,8.1L44.14,39.45a12.11,12.11,0,0,1-7.62,3,8.89,8.89,0,0,1-2-.23M29.24,6.57a10.85,10.85,0,0,0-5.56,8.37c0,.1-.35,2.6.78,11.12S26.57,36.9,26.61,37a11,11,0,0,0,7.55,6.71,10.35,10.35,0,0,0,2.36.26,13.65,13.65,0,0,0,8.61-3.38L56.9,30.8c3.32-2.75,4.9-6.11,4.46-9.44s-2.84-6.17-6.77-8L40.66,6.84a14.92,14.92,0,0,0-6.3-1.48,10.92,10.92,0,0,0-5.12,1.21"/><path class="cls-2" d="M33.17,40.13a12.38,12.38,0,0,1-9.41-3.73,10.65,10.65,0,0,1-2.15-9.7c0-.1.63-2.66,5-10.81s6.23-10.1,6.31-10.18a11.77,11.77,0,0,1,10-4c3.75.43,7.06,2.77,9.33,6.6l8.22,13.91c2.16,3.65,2.52,7.3,1,10.29-1.58,3.16-5,5.17-9.61,5.67L35.14,40A19,19,0,0,1,33.17,40.13Zm8.51-38A11.64,11.64,0,0,0,33.26,6S31.37,8,27,16.1s-5,10.67-5,10.7a10.24,10.24,0,0,0,2.05,9.31c2.41,2.7,6.42,4,11,3.47l16.71-1.8c4.46-.49,7.76-2.41,9.27-5.43,1.43-2.86,1.07-6.36-1-9.87L51.84,8.56c-2.19-3.7-5.39-6-9-6.39A11.45,11.45,0,0,0,41.68,2.1Z"/><path class="cls-3" d="M3.34,25.37l.9-1.05a3.35,3.35,0,0,0,2.24,1c1,0,1.5-.44,1.5-1.11s-.55-.94-1.34-1.27l-1.17-.51a2.47,2.47,0,0,1-1.75-2.28,2.63,2.63,0,0,1,2.9-2.44,3.78,3.78,0,0,1,2.65,1.1l-.78,1A2.8,2.8,0,0,0,6.62,19c-.82,0-1.35.39-1.35,1s.66.92,1.37,1.22l1.16.48a2.39,2.39,0,0,1,1.74,2.33c0,1.4-1.16,2.56-3.09,2.56A4.46,4.46,0,0,1,3.34,25.37Z"/><path class="cls-3" d="M10.59,17.16h1.48V23h0l2.4-3h1.66L14,22.63l2.44,3.84H14.75l-1.66-2.81-1,1.17v1.64H10.59Z"/><path class="cls-3" d="M17.09,18A.94.94,0,0,1,19,18a.94.94,0,0,1-1.88,0Zm.18,2h1.51v6.47H17.27Z"/><path class="cls-3" d="M20.52,24.81V17.16H22v7.73c0,.37.17.5.33.5l.24,0,.19,1.13a2.24,2.24,0,0,1-.8.13C20.91,26.63,20.52,25.93,20.52,24.81Z"/><path class="cls-3" d="M23.89,24.81V17.16H25.4v7.73c0,.37.17.5.33.5a1.2,1.2,0,0,0,.24,0l.19,1.13a2.24,2.24,0,0,1-.8.13C24.28,26.63,23.89,25.93,23.89,24.81Z"/><path class="cls-3" d="M26.75,25.73l.7-1a2.87,2.87,0,0,0,1.79.73c.71,0,1-.34,1-.78s-.7-.78-1.39-1.05c-.85-.32-1.82-.8-1.82-1.89s.91-1.93,2.35-1.93a3.5,3.5,0,0,1,2.16.78l-.7.93A2.43,2.43,0,0,0,29.46,21c-.65,0-1,.32-1,.72s.66.71,1.36,1c.87.32,1.85.75,1.85,1.95s-.88,2-2.51,2A4,4,0,0,1,26.75,25.73Z"/><path class="cls-3" d="M33.21,17.85h5.2v1.29H34.73v2.45h3.13v1.28H34.73v3.6H33.21Z"/><path class="cls-3" d="M39.68,22.69V17.85h1.53v5c0,1.88.7,2.49,1.75,2.49s1.78-.61,1.78-2.49v-5h1.47v4.84c0,2.83-1.26,3.94-3.25,3.94S39.68,25.52,39.68,22.69Z"/><path class="cls-3" d="M49.77,19.14H47.28V17.85h6.51v1.29H51.3v7.33H49.77Z"/><path class="cls-3" d="M54.93,22.69V17.85h1.53v5c0,1.88.7,2.49,1.74,2.49S60,24.69,60,22.81v-5h1.47v4.84c0,2.83-1.25,3.94-3.25,3.94S54.93,25.52,54.93,22.69Z"/><path class="cls-3" d="M62.88,17.85h2.9c1.8,0,3.18.64,3.18,2.56s-1.38,2.69-3.18,2.69H64.41v3.37H62.88Zm2.75,4c1.18,0,1.82-.49,1.82-1.47s-.64-1.33-1.82-1.33H64.41v2.8Zm-.13.82,1.1-.92,2.7,4.69H67.58Z"/><path class="cls-3" d="M70.41,17.85H75.6v1.29H71.94v2.21H75v1.28h-3.1v2.56h3.79v1.28H70.41Z"/><path class="cls-3" d="M76.51,25.37l.89-1.05a3.39,3.39,0,0,0,2.25,1c1,0,1.5-.44,1.5-1.11s-.55-.94-1.34-1.27l-1.17-.51a2.47,2.47,0,0,1-1.75-2.28,2.63,2.63,0,0,1,2.9-2.44,3.78,3.78,0,0,1,2.65,1.1l-.78,1A2.8,2.8,0,0,0,79.79,19c-.82,0-1.35.39-1.35,1s.65.92,1.37,1.22l1.16.48a2.39,2.39,0,0,1,1.74,2.33c0,1.4-1.16,2.56-3.09,2.56A4.46,4.46,0,0,1,76.51,25.37Z"/></svg>