<svg id="Layer_1" data-name="Layer 1" xmlns="http://www.w3.org/2000/svg" xmlns:xlink="http://www.w3.org/1999/xlink" viewBox="0 0 66.46 34.08"><defs><style>.cls-1{fill:url(#linear-gradient);filter:url(#luminosity-noclip);}.cls-2{fill:none;}.cls-3{clip-path:url(#clip-path);}.cls-4{clip-path:url(#clip-path-2);}.cls-5{clip-path:url(#clip-path-3);}.cls-6{opacity:0.5;}.cls-7{clip-path:url(#clip-path-4);}.cls-8{mask:url(#mask);}.cls-9{fill:#e92447;}.cls-10{fill:#be202e;}.cls-11{fill:#231f20;}</style><linearGradient id="linear-gradient" x1="-192.56" y1="-567.38" x2="-192.2" y2="-567.38" gradientTransform="matrix(0, 35.83, 35.83, 0, 20348.42, 6915.21)" gradientUnits="userSpaceOnUse"><stop offset="0" stop-color="#fff"/><stop offset="0.06" stop-color="#dadada"/><stop offset="0.16" stop-color="#a7a7a7"/><stop offset="0.26" stop-color="#7b7b7b"/><stop offset="0.37" stop-color="#555"/><stop offset="0.48" stop-color="#363636"/><stop offset="0.59" stop-color="#1e1e1e"/><stop offset="0.71" stop-color="#0d0d0d"/><stop offset="0.84" stop-color="#030303"/><stop offset="1"/></linearGradient><clipPath id="clip-path"><rect class="cls-2" x="11.57" y="16.9" width="20.83" height="12.98"/></clipPath><clipPath id="clip-path-2"><rect class="cls-2" x="11.38" y="3.58" width="21.09" height="25.94"/></clipPath><clipPath id="clip-path-3"><rect class="cls-2" x="11.38" y="3.58" width="21.09" height="25.94"/></clipPath><clipPath id="clip-path-4"><rect class="cls-2" x="5.6" y="11.87" width="31.9" height="18.01"/></clipPath><filter id="luminosity-noclip" x="5.6" y="11.87" width="31.9" height="18.01" filterUnits="userSpaceOnUse" color-interpolation-filters="sRGB"><feFlood flood-color="#fff" result="bg"/><feBlend in="SourceGraphic" in2="bg"/></filter><mask id="mask" x="5.6" y="11.87" width="31.9" height="18.01" maskUnits="userSpaceOnUse"><rect class="cls-1" x="5.6" y="11.87" width="31.9" height="18.01"/></mask></defs><title>pair-logo-p</title><g class="cls-3"><g class="cls-4"><g class="cls-5"><g class="cls-6"><g class="cls-7"><g class="cls-8"><g class="cls-7"><polygon class="cls-9" points="18.79 29.52 11.38 16.57 26.19 16.57 18.79 29.52"/><path class="cls-9" d="M19.62,16.82h8.63l-4.32,6.57Zm9-.2h-9.4l4.7,7.18Z"/></g></g></g></g></g></g></g><polygon class="cls-9" points="18.81 4.24 11.57 16.9 26.05 16.9 18.81 4.24"/><path class="cls-10" d="M28.48,16.9H18.75l.09-.13,4.78-7.24.07.11Zm-9.42-.17h9.11l-4.55-6.9Z"/><path class="cls-11" d="M5.58,5.24H9.46c2.53,0,4.08,1,4.08,3.18,0,2.35-1.74,3.31-4.19,3.31H6.7v5.16H5.58Zm3.85,5.49c1.92,0,3-.59,3-2.28s-1.06-2.19-3-2.19H6.7v4.47Z"/><path class="cls-11" d="M29.42,5.24h1.12V16.89H29.42Z"/><path class="cls-11" d="M34.23,5.24h3.9c2.6,0,4,1.1,4,3.15a3,3,0,0,1-2.79,3.15l3,5.35H41.08l-2.85-5.23h-2.9v5.23h-1.1Zm3.82,5.43c1.93,0,3-.55,3-2.23S40,6.26,38,6.26H35.33v4.41Z"/><path class="cls-11" d="M43.13,5.27h.48a.46.46,0,0,1,.22,0A.28.28,0,0,1,44,5.4a.24.24,0,0,1,.07.12.59.59,0,0,1,0,.13.69.69,0,0,1,0,.13.33.33,0,0,1-.21.21.65.65,0,0,1-.22,0h-.3v.59h-.18Zm.18.59h.36a.19.19,0,0,0,.09,0,.11.11,0,0,0,.07-.06.2.2,0,0,0,0-.11.18.18,0,0,0,0-.11.16.16,0,0,0-.07-.07l-.09,0h-.36Z"/><path class="cls-11" d="M44.76,5.27h.18l.59,1.34h-.22l-.14-.33h-.66l-.14.33h-.22Zm.34.85-.26-.61h0l-.26.61Z"/><path class="cls-11" d="M45.85,5.27h.48a.46.46,0,0,1,.22,0,.28.28,0,0,1,.14.09.24.24,0,0,1,.07.12.59.59,0,0,1,0,.13.27.27,0,0,1,0,.12.24.24,0,0,1-.06.11L46.58,6a.33.33,0,0,1-.14,0l.39.61H46.6L46.24,6H46v.59h-.18Zm.18.59h.36a.19.19,0,0,0,.09,0,.11.11,0,0,0,.07-.06.2.2,0,0,0,0-.11.18.18,0,0,0,0-.11.16.16,0,0,0-.07-.07l-.09,0H46Z"/><path class="cls-11" d="M47.47,5.44H47V5.27H48.1v.17h-.44V6.61h-.19Z"/><path class="cls-11" d="M48.45,5.27h.25l.76,1.11h0V5.27h.18V6.61h-.23l-.78-1.1h0v1.1h-.19Z"/><path class="cls-11" d="M50.15,5.27H51v.17h-.7v.4H51V6h-.65v.43h.74v.17h-.93Z"/><path class="cls-11" d="M51.47,5.27H52a.48.48,0,0,1,.22,0,.25.25,0,0,1,.13.09.19.19,0,0,1,.07.12.31.31,0,0,1,0,.13.27.27,0,0,1,0,.12.26.26,0,0,1-.07.11.39.39,0,0,1-.1.08.37.37,0,0,1-.15,0l.4.61h-.24L51.87,6h-.21v.59h-.19Zm.19.59H52l.09,0a.13.13,0,0,0,.07-.06.2.2,0,0,0,0-.11.18.18,0,0,0,0-.11.23.23,0,0,0-.07-.07l-.09,0h-.36Z"/><path class="cls-11" d="M52.89,6.33a.24.24,0,0,0,.13.11.29.29,0,0,0,.16,0l.09,0,.1,0,.06-.07a.17.17,0,0,0,0-.1.13.13,0,0,0-.05-.11l-.13-.07L53.11,6A.46.46,0,0,1,53,5.94a.49.49,0,0,1-.13-.12.41.41,0,0,1,0-.21.27.27,0,0,1,0-.12.25.25,0,0,1,.08-.12.56.56,0,0,1,.15-.1.66.66,0,0,1,.21,0,.78.78,0,0,1,.22,0,.36.36,0,0,1,.18.12l-.15.14a.22.22,0,0,0-.1-.09.33.33,0,0,0-.15,0l-.13,0L53,5.48a.18.18,0,0,0-.05.07s0,0,0,.06a.17.17,0,0,0,.05.13.57.57,0,0,0,.13.08l.16,0a.85.85,0,0,1,.17.06.69.69,0,0,1,.13.11.36.36,0,0,1,0,.19.48.48,0,0,1,0,.18.45.45,0,0,1-.11.13.53.53,0,0,1-.15.08.58.58,0,0,1-.19,0,.74.74,0,0,1-.25-.05.38.38,0,0,1-.19-.14Z"/><path class="cls-11" d="M54.08,5.27h.19v.56H55V5.27h.19V6.61H55V6h-.72v.61h-.19Z"/><path class="cls-11" d="M55.67,5.27h.19V6.61h-.19Z"/><path class="cls-11" d="M56.35,5.27h.49a.48.48,0,0,1,.22,0,.25.25,0,0,1,.13.09.19.19,0,0,1,.07.12.3.3,0,0,1,0,.13.32.32,0,0,1,0,.13.25.25,0,0,1-.07.12.33.33,0,0,1-.13.09.69.69,0,0,1-.22,0h-.3v.59h-.19Zm.19.59h.35l.1,0a.13.13,0,0,0,.07-.06.2.2,0,0,0,0-.11.18.18,0,0,0,0-.11A.23.23,0,0,0,57,5.47l-.1,0h-.35Z"/><path class="cls-11" d="M58.37,5.27h.87v.17h-.68v.42h.64V6h-.64v.58h-.19Z"/><path class="cls-11" d="M60.25,6.65A.68.68,0,0,1,60,6.59a.59.59,0,0,1-.23-.14.91.91,0,0,1-.15-.23.64.64,0,0,1,0-.28.59.59,0,0,1,0-.27A.67.67,0,0,1,60,5.29a.87.87,0,0,1,.58,0,.67.67,0,0,1,.38.38.59.59,0,0,1,0,.27.64.64,0,0,1,0,.28.91.91,0,0,1-.15.23.59.59,0,0,1-.23.14A.68.68,0,0,1,60.25,6.65Zm0-.17a.65.65,0,0,0,.21,0,.52.52,0,0,0,.17-.12.5.5,0,0,0,.11-.17.66.66,0,0,0,0-.21.64.64,0,0,0,0-.2.42.42,0,0,0-.11-.17.52.52,0,0,0-.17-.12.57.57,0,0,0-.42,0,.52.52,0,0,0-.17.12.42.42,0,0,0-.11.17.64.64,0,0,0,0,.2.66.66,0,0,0,0,.21.5.5,0,0,0,.11.17.52.52,0,0,0,.17.12A.65.65,0,0,0,60.25,6.48Z"/><path class="cls-11" d="M61.37,5.27h.49a.48.48,0,0,1,.22,0,.3.3,0,0,1,.13.09.19.19,0,0,1,.07.12.3.3,0,0,1,0,.13.5.5,0,0,1,0,.12.41.41,0,0,1-.07.11A.31.31,0,0,1,62.1,6,.33.33,0,0,1,62,6l.4.61h-.24L61.77,6h-.21v.59h-.19Zm.19.59h.35l.1,0a.13.13,0,0,0,.07-.06.36.36,0,0,0,0-.11.31.31,0,0,0,0-.11A.23.23,0,0,0,62,5.47l-.1,0h-.35Z"/><path class="cls-11" d="M44,7.43h.3l1,2.44H45l-.24-.6H43.58l-.24.6H43ZM44.62,9l-.45-1.12h0L43.7,9Z"/><path class="cls-11" d="M46.11,7.43v1.5a1,1,0,0,0,0,.23.94.94,0,0,0,.1.23.74.74,0,0,0,.19.16.54.54,0,0,0,.29.07A.52.52,0,0,0,47,9.55a.6.6,0,0,0,.19-.16.67.67,0,0,0,.1-.23,1,1,0,0,0,0-.23V7.43h.33V9a.92.92,0,0,1-.07.38.92.92,0,0,1-.5.5,1,1,0,0,1-.74,0,1,1,0,0,1-.3-.2A.93.93,0,0,1,45.78,9V7.43Z"/><path class="cls-11" d="M48.45,9.36a.63.63,0,0,0,.23.2.72.72,0,0,0,.29.06l.17,0a.41.41,0,0,0,.15-.07.49.49,0,0,0,.12-.13.34.34,0,0,0,0-.18A.26.26,0,0,0,49.36,9a.66.66,0,0,0-.22-.12l-.29-.1a1.08,1.08,0,0,1-.29-.13.77.77,0,0,1-.22-.22.69.69,0,0,1-.09-.38.63.63,0,0,1,0-.22.54.54,0,0,1,.15-.22.65.65,0,0,1,.25-.17,1.07,1.07,0,0,1,.38-.07,1.21,1.21,0,0,1,.38.06.69.69,0,0,1,.32.22l-.27.24a.5.5,0,0,0-.17-.15.58.58,0,0,0-.26-.06.53.53,0,0,0-.23,0,.32.32,0,0,0-.22.21.35.35,0,0,0,0,.12.3.3,0,0,0,.09.24.58.58,0,0,0,.23.13,1.83,1.83,0,0,0,.28.1,1.25,1.25,0,0,1,.29.11.7.7,0,0,1,.22.2.61.61,0,0,1,.09.35.78.78,0,0,1-.06.31.76.76,0,0,1-.18.24,1.17,1.17,0,0,1-.27.15,1.2,1.2,0,0,1-.33,0,1.23,1.23,0,0,1-.44-.08.69.69,0,0,1-.34-.26Z"/><path class="cls-11" d="M50.94,7.74h-.79V7.43h1.9v.31h-.78V9.87h-.33Z"/><path class="cls-11" d="M52.54,7.43h.85a1,1,0,0,1,.39.07.6.6,0,0,1,.24.16.48.48,0,0,1,.12.22,1,1,0,0,1,0,.24.57.57,0,0,1,0,.22.59.59,0,0,1-.12.2.86.86,0,0,1-.18.14.72.72,0,0,1-.26.08l.7,1.11h-.42L53.24,8.8h-.37V9.87h-.33Zm.33,1.08h.43l.19,0a.49.49,0,0,0,.17-.06.25.25,0,0,0,.12-.11.4.4,0,0,0,0-.2.44.44,0,0,0,0-.21.25.25,0,0,0-.12-.11.49.49,0,0,0-.17-.06l-.19,0h-.43Z"/><path class="cls-11" d="M55.54,7.43h.3l1,2.44h-.39l-.24-.6H55.09l-.24.6h-.38ZM56.13,9l-.46-1.12h0L55.21,9Z"/><path class="cls-11" d="M57.33,7.43h.33V9.56h1.12v.31H57.33Z"/><path class="cls-11" d="M59.25,7.43h.33V9.87h-.33Z"/><path class="cls-11" d="M61.11,7.43h.29l1.05,2.44h-.39l-.24-.6H60.66l-.24.6H60ZM61.7,9l-.46-1.12h0L60.78,9Z"/><path class="cls-11" d="M43.22,10.92h.33v2.43h-.33Z"/><path class="cls-11" d="M44.25,10.92h.44l1.34,2h0v-2h.33v2.43H46l-1.36-2h0v2h-.33Z"/><path class="cls-11" d="M47,10.92h.85a2,2,0,0,1,.45.05,1,1,0,0,1,.33.16.88.88,0,0,1,.24.23,1.35,1.35,0,0,1,.15.26,1.38,1.38,0,0,1,.08.27,1,1,0,0,1,0,.24,1.33,1.33,0,0,1-.08.45,1,1,0,0,1-.26.39,1.2,1.2,0,0,1-.41.28,1.72,1.72,0,0,1-.58.1H47ZM47.35,13h.41a1.34,1.34,0,0,0,.4-.06,1,1,0,0,0,.33-.17.76.76,0,0,0,.22-.28.84.84,0,0,0,.08-.4,1.39,1.39,0,0,0,0-.27,1.05,1.05,0,0,0-.15-.3.89.89,0,0,0-.29-.24,1.07,1.07,0,0,0-.48-.1h-.49Z"/><path class="cls-11" d="M50.75,13.41a1.19,1.19,0,0,1-.51-.1,1,1,0,0,1-.4-.27,1.07,1.07,0,0,1-.26-.4,1.25,1.25,0,0,1-.1-.51,1.18,1.18,0,0,1,.1-.5,1.1,1.1,0,0,1,.26-.41,1.28,1.28,0,0,1,.4-.27,1.36,1.36,0,0,1,.51-.1,1.45,1.45,0,0,1,.51.1,1.28,1.28,0,0,1,.4.27,1.25,1.25,0,0,1,.26.41,1.18,1.18,0,0,1,.1.5,1.25,1.25,0,0,1-.1.51,1.2,1.2,0,0,1-.26.4,1,1,0,0,1-.4.27A1.25,1.25,0,0,1,50.75,13.41Zm0-.31a.81.81,0,0,0,.38-.08,1,1,0,0,0,.29-.2.87.87,0,0,0,.18-.31,1.22,1.22,0,0,0,.07-.38,1.11,1.11,0,0,0-.07-.37.86.86,0,0,0-.47-.52,1,1,0,0,0-.38-.08.92.92,0,0,0-.38.08.86.86,0,0,0-.47.52.9.9,0,0,0-.07.37,1,1,0,0,0,.07.38.87.87,0,0,0,.18.31,1,1,0,0,0,.29.2A.79.79,0,0,0,50.75,13.1Z"/><path class="cls-11" d="M52.52,10.92H53l1.34,2h0v-2h.33v2.43h-.42l-1.35-2h0v2h-.33Z"/><path class="cls-11" d="M55.29,10.92h1.56v.3H55.61V12h1.16v.31H55.61V13h1.31v.31H55.29Z"/><path class="cls-11" d="M57.56,12.84a.5.5,0,0,0,.23.2.67.67,0,0,0,.28.06l.17,0L58.4,13a.69.69,0,0,0,.11-.13.34.34,0,0,0,.05-.17.27.27,0,0,0-.09-.22.78.78,0,0,0-.22-.12l-.29-.1a1,1,0,0,1-.29-.13.66.66,0,0,1-.22-.22.69.69,0,0,1-.09-.38.6.6,0,0,1,0-.22.54.54,0,0,1,.15-.22.84.84,0,0,1,.26-.17,1,1,0,0,1,.37-.07,1.21,1.21,0,0,1,.38.06.64.64,0,0,1,.32.22l-.26.25a.55.55,0,0,0-.18-.16.55.55,0,0,0-.26-.06.73.73,0,0,0-.23,0,.28.28,0,0,0-.14.09.42.42,0,0,0-.08.12.37.37,0,0,0,.07.36.54.54,0,0,0,.22.13l.29.1a1.45,1.45,0,0,1,.29.11.83.83,0,0,1,.22.2.61.61,0,0,1,.09.35.64.64,0,0,1-.07.31.63.63,0,0,1-.18.24.89.89,0,0,1-.27.15,1.14,1.14,0,0,1-.33.05,1.32,1.32,0,0,1-.44-.08.71.71,0,0,1-.33-.26Z"/><path class="cls-11" d="M59.53,10.92h.33v2.43h-.33Z"/><path class="cls-11" d="M61.34,10.92h.3l1,2.43H62.3l-.24-.6H60.9l-.24.6h-.39Zm.6,1.54-.46-1.12h0L61,12.46Z"/><path class="cls-11" d="M43.25,14.4h.86a1,1,0,0,1,.38.06.72.72,0,0,1,.24.16.53.53,0,0,1,.12.22,1,1,0,0,1,0,.24.78.78,0,0,1,0,.22.82.82,0,0,1-.12.2.7.7,0,0,1-.19.15.72.72,0,0,1-.25.07L45,16.83h-.41L44,15.76h-.37v1.07h-.33Zm.33,1.07H44l.2,0,.16,0a.34.34,0,0,0,.12-.12.42.42,0,0,0,0-.4.28.28,0,0,0-.12-.12.44.44,0,0,0-.16-.06h-.63Z"/><path class="cls-11" d="M45.64,14.4h1.57v.31H46v.72h1.15v.31H46v.78h1.3v.31H45.64Z"/><path class="cls-11" d="M48.09,16.32a.55.55,0,0,0,.23.2.72.72,0,0,0,.29.06l.17,0,.15-.08a.37.37,0,0,0,.12-.13.33.33,0,0,0,0-.17A.27.27,0,0,0,49,16a.66.66,0,0,0-.22-.12l-.29-.1a1.08,1.08,0,0,1-.29-.13.66.66,0,0,1-.22-.22.68.68,0,0,1-.09-.37.64.64,0,0,1,0-.23.62.62,0,0,1,.15-.22.79.79,0,0,1,.25-.17,1.08,1.08,0,0,1,.38-.06,1.2,1.2,0,0,1,.38.05.69.69,0,0,1,.32.22l-.27.25A.44.44,0,0,0,49,14.7a.58.58,0,0,0-.26,0,.75.75,0,0,0-.23,0,.54.54,0,0,0-.15.09.33.33,0,0,0-.07.13.27.27,0,0,0,0,.12.29.29,0,0,0,.09.23.83.83,0,0,0,.22.14l.29.09a1.26,1.26,0,0,1,.29.12.57.57,0,0,1,.22.19.61.61,0,0,1,.09.35.83.83,0,0,1-.06.32.71.71,0,0,1-.19.23.61.61,0,0,1-.26.15,1,1,0,0,1-.33.05,1.33,1.33,0,0,1-.45-.08.7.7,0,0,1-.33-.25Z"/><path class="cls-11" d="M50.22,14.4h1.56v.31H50.54v.72H51.7v.31H50.54v.78h1.31v.31H50.22Z"/><path class="cls-11" d="M53.38,14.4h.3l1,2.43h-.39l-.24-.6H52.93l-.24.6h-.38ZM54,15.94l-.45-1.12h0l-.46,1.12Z"/><path class="cls-11" d="M55.36,14.4h.85a1.1,1.1,0,0,1,.39.06.59.59,0,0,1,.23.16.71.71,0,0,1,.13.22,1,1,0,0,1,0,.24.54.54,0,0,1,0,.22.82.82,0,0,1-.12.2.58.58,0,0,1-.19.15.66.66,0,0,1-.25.07l.69,1.11h-.41l-.62-1.07h-.37v1.07h-.32Zm.32,1.07h.44l.19,0,.17,0a.34.34,0,0,0,.12-.12.52.52,0,0,0,0-.4.28.28,0,0,0-.12-.12.49.49,0,0,0-.17-.06h-.63Z"/><path class="cls-11" d="M59.43,14.92a.65.65,0,0,0-.26-.2.71.71,0,0,0-.32-.07.92.92,0,0,0-.38.07.83.83,0,0,0-.28.21,1.13,1.13,0,0,0-.19.32,1.23,1.23,0,0,0-.06.39A1.13,1.13,0,0,0,58,16a.92.92,0,0,0,.18.3.78.78,0,0,0,.29.21.89.89,0,0,0,.38.07.8.8,0,0,0,.36-.08.78.78,0,0,0,.27-.24l.28.21a.91.91,0,0,1-.1.1.71.71,0,0,1-.18.15l-.27.12a1.38,1.38,0,0,1-.37.05,1.24,1.24,0,0,1-.52-.11,1.18,1.18,0,0,1-.4-.29,1.28,1.28,0,0,1-.25-.4,1.42,1.42,0,0,1-.08-.45,1.51,1.51,0,0,1,.09-.53,1.36,1.36,0,0,1,.26-.41,1.41,1.41,0,0,1,.4-.27,1.46,1.46,0,0,1,.52-.09,1.31,1.31,0,0,1,.47.09.88.88,0,0,1,.38.28Z"/><path class="cls-11" d="M60.39,14.4h.33v1H62v-1h.33v2.43H62V15.72H60.72v1.11h-.33Z"/></svg>