<svg id="Layer_1" data-name="Layer 1" xmlns="http://www.w3.org/2000/svg" xmlns:xlink="http://www.w3.org/1999/xlink" viewBox="0 0 62.96 32"><defs><style>.cls-1{fill:url(#linear-gradient);filter:url(#luminosity-noclip);}.cls-2{fill:none;}.cls-3{clip-path:url(#clip-path);}.cls-4{clip-path:url(#clip-path-2);}.cls-5{opacity:0.5;}.cls-6{clip-path:url(#clip-path-4);}.cls-7{mask:url(#mask);}.cls-8{fill:#e92447;}.cls-9{fill:#be202e;}.cls-10{fill:#fff;}</style><linearGradient id="linear-gradient" x1="-194.31" y1="-568.05" x2="-193.95" y2="-568.05" gradientTransform="matrix(0, 35.83, 35.83, 0, 20370.56, 6977.24)" gradientUnits="userSpaceOnUse"><stop offset="0" stop-color="#fff"/><stop offset="0.06" stop-color="#dadada"/><stop offset="0.16" stop-color="#a7a7a7"/><stop offset="0.26" stop-color="#7b7b7b"/><stop offset="0.37" stop-color="#555"/><stop offset="0.48" stop-color="#363636"/><stop offset="0.59" stop-color="#1e1e1e"/><stop offset="0.71" stop-color="#0d0d0d"/><stop offset="0.84" stop-color="#030303"/><stop offset="1"/></linearGradient><clipPath id="clip-path"><rect class="cls-2" x="9.82" y="16.23" width="20.83" height="12.98"/></clipPath><clipPath id="clip-path-2"><rect class="cls-2" x="9.63" y="2.91" width="21.09" height="25.94"/></clipPath><clipPath id="clip-path-4"><rect class="cls-2" x="3.85" y="11.2" width="31.9" height="18.01"/></clipPath><filter id="luminosity-noclip" x="3.85" y="11.2" width="31.9" height="18.01" filterUnits="userSpaceOnUse" color-interpolation-filters="sRGB"><feFlood flood-color="#fff" result="bg"/><feBlend in="SourceGraphic" in2="bg"/></filter><mask id="mask" x="3.85" y="11.2" width="31.9" height="18.01" maskUnits="userSpaceOnUse"><rect class="cls-1" x="3.85" y="11.2" width="31.9" height="18.01"/></mask></defs><title>pair-logo</title><g class="cls-3"><g class="cls-4"><g class="cls-4"><g class="cls-5"><g class="cls-6"><g class="cls-7"><g class="cls-6"><polygon class="cls-8" points="17.04 28.85 9.63 15.9 24.44 15.9 17.04 28.85"/><path class="cls-8" d="M17.87,16.16H26.5l-4.32,6.56Zm9-.21h-9.4l4.7,7.18Z"/></g></g></g></g></g></g></g><polygon class="cls-8" points="17.06 3.57 9.82 16.23 24.3 16.23 17.06 3.57"/><path class="cls-9" d="M26.73,16.23H17l.09-.13,4.78-7.23.07.1Zm-9.42-.17h9.11L21.87,9.17Z"/><path class="cls-10" d="M3.83,4.57H7.71c2.53,0,4.08,1,4.08,3.18,0,2.35-1.74,3.31-4.19,3.31H5v5.17H3.83Zm3.85,5.5c1.92,0,3-.6,3-2.29s-1.06-2.19-3-2.19H5v4.48Z"/><path class="cls-10" d="M27.67,4.57h1.12V16.23H27.67Z"/><path class="cls-10" d="M32.48,4.57h3.9c2.6,0,4,1.1,4,3.15a3,3,0,0,1-2.79,3.15l3,5.36H39.33L36.48,11h-2.9v5.23h-1.1ZM36.3,10c1.93,0,3-.56,3-2.24s-1.07-2.18-3-2.18H33.58V10Z"/><path class="cls-10" d="M41.38,4.61h.48a.65.65,0,0,1,.22,0,.28.28,0,0,1,.14.09.37.37,0,0,1,.07.12.69.69,0,0,1,0,.13.59.59,0,0,1,0,.13.24.24,0,0,1-.07.12.28.28,0,0,1-.14.09.46.46,0,0,1-.22,0h-.3V6h-.18Zm.18.59h.36l.09,0a.16.16,0,0,0,.07-.07.18.18,0,0,0,0-.11.2.2,0,0,0,0-.11A.11.11,0,0,0,42,4.81a.19.19,0,0,0-.09,0h-.36Z"/><path class="cls-10" d="M43,4.61h.18L43.78,6h-.22l-.14-.33h-.66L42.62,6H42.4Zm.34.85-.26-.62h0l-.26.62Z"/><path class="cls-10" d="M44.1,4.61h.48a.65.65,0,0,1,.22,0,.28.28,0,0,1,.14.09.37.37,0,0,1,.07.12A.69.69,0,0,1,45,5a.24.24,0,0,1,0,.12.2.2,0,0,1-.06.11.48.48,0,0,1-.11.09l-.14,0,.39.61h-.23l-.36-.59h-.21V6H44.1Zm.18.59h.36l.09,0a.16.16,0,0,0,.07-.07.18.18,0,0,0,0-.11.2.2,0,0,0,0-.11.11.11,0,0,0-.07-.06.19.19,0,0,0-.09,0h-.36Z"/><path class="cls-10" d="M45.72,4.78h-.45V4.61h1.08v.17h-.44V6h-.19Z"/><path class="cls-10" d="M46.7,4.61H47l.76,1.1h0V4.61h.18V6h-.23l-.78-1.11h0V6H46.7Z"/><path class="cls-10" d="M48.4,4.61h.89v.17h-.7v.4h.65v.17h-.65v.43h.74V6H48.4Z"/><path class="cls-10" d="M49.72,4.61h.49a.69.69,0,0,1,.22,0,.34.34,0,0,1,.2.21.35.35,0,0,1,0,.13.24.24,0,0,1,0,.12.21.21,0,0,1-.07.11.43.43,0,0,1-.1.09l-.15,0,.4.61h-.24l-.35-.59h-.21V6h-.19Zm.19.59h.36l.09,0a.23.23,0,0,0,.07-.07.18.18,0,0,0,0-.11.2.2,0,0,0,0-.11.13.13,0,0,0-.07-.06l-.09,0h-.36Z"/><path class="cls-10" d="M51.14,5.67a.28.28,0,0,0,.13.11.41.41,0,0,0,.16,0h.09a.31.31,0,0,0,.1,0,.22.22,0,0,0,.06-.07.14.14,0,0,0,0-.09.17.17,0,0,0-.05-.12l-.13-.07-.17-.05-.16-.07a.49.49,0,0,1-.13-.12A.46.46,0,0,1,51,5a.35.35,0,0,1,0-.13.42.42,0,0,1,.08-.12.38.38,0,0,1,.15-.09.46.46,0,0,1,.21,0,.78.78,0,0,1,.22,0,.36.36,0,0,1,.18.12l-.15.14s-.06-.06-.1-.09a.33.33,0,0,0-.15,0l-.13,0-.08,0-.05.07s0,0,0,.07a.19.19,0,0,0,.05.13l.13.07.16,0,.17.07a.3.3,0,0,1,.18.3.47.47,0,0,1,0,.17.35.35,0,0,1-.11.13.36.36,0,0,1-.15.08.58.58,0,0,1-.19,0,.73.73,0,0,1-.25,0A.45.45,0,0,1,51,5.8Z"/><path class="cls-10" d="M52.33,4.61h.19v.55h.72V4.61h.19V6h-.19V5.33h-.72V6h-.19Z"/><path class="cls-10" d="M53.92,4.61h.19V6h-.19Z"/><path class="cls-10" d="M54.6,4.61h.49a.69.69,0,0,1,.22,0,.34.34,0,0,1,.2.21.32.32,0,0,1,0,.13.3.3,0,0,1,0,.13.19.19,0,0,1-.07.12.25.25,0,0,1-.13.09.48.48,0,0,1-.22,0h-.3V6H54.6Zm.19.59h.35l.1,0a.23.23,0,0,0,.07-.07.18.18,0,0,0,0-.11.2.2,0,0,0,0-.11.13.13,0,0,0-.07-.06l-.1,0h-.35Z"/><path class="cls-10" d="M56.62,4.61h.87v.17h-.68V5.2h.64v.17h-.64V6h-.19Z"/><path class="cls-10" d="M58.5,6a.88.88,0,0,1-.29-.05A.76.76,0,0,1,58,5.78a.86.86,0,0,1-.15-.22.66.66,0,0,1,0-.28.64.64,0,0,1,0-.28A.91.91,0,0,1,58,4.77a.59.59,0,0,1,.23-.14.73.73,0,0,1,.58,0,.59.59,0,0,1,.23.14.91.91,0,0,1,.15.23.64.64,0,0,1,0,.28.66.66,0,0,1,0,.28.86.86,0,0,1-.15.22.76.76,0,0,1-.23.15A.88.88,0,0,1,58.5,6Zm0-.17a.46.46,0,0,0,.21,0,.52.52,0,0,0,.17-.12A.46.46,0,0,0,59,5.49a.76.76,0,0,0,0-.21.71.71,0,0,0,0-.21.5.5,0,0,0-.11-.17.39.39,0,0,0-.17-.11.47.47,0,0,0-.42,0,.39.39,0,0,0-.17.11.5.5,0,0,0-.11.17.71.71,0,0,0,0,.21.76.76,0,0,0,0,.21.46.46,0,0,0,.11.16.52.52,0,0,0,.17.12A.46.46,0,0,0,58.5,5.81Z"/><path class="cls-10" d="M59.62,4.61h.49a.69.69,0,0,1,.22,0,.3.3,0,0,1,.13.09.25.25,0,0,1,.07.12.32.32,0,0,1,0,.13.43.43,0,0,1,0,.12.3.3,0,0,1-.07.11.33.33,0,0,1-.11.09l-.14,0,.4.61h-.24L60,5.36h-.21V6h-.19Zm.19.59h.35l.1,0a.23.23,0,0,0,.07-.07.31.31,0,0,0,0-.11.36.36,0,0,0,0-.11.13.13,0,0,0-.07-.06l-.1,0h-.35Z"/><path class="cls-10" d="M42.28,6.77h.3l1,2.43h-.39L43,8.6H41.83l-.24.6h-.38Zm.59,1.54-.45-1.12h0L42,8.31Z"/><path class="cls-10" d="M44.36,6.77V8.26a1,1,0,0,0,0,.23.8.8,0,0,0,.1.23.77.77,0,0,0,.19.17A.65.65,0,0,0,45,9a.53.53,0,0,0,.48-.23.6.6,0,0,0,.1-.23,1,1,0,0,0,0-.23V6.77h.33V8.31a1,1,0,0,1-.07.39,1,1,0,0,1-.2.3.77.77,0,0,1-.3.19,1,1,0,0,1-.74,0A1,1,0,0,1,44.3,9a1.21,1.21,0,0,1-.2-.3A1,1,0,0,1,44,8.31V6.77Z"/><path class="cls-10" d="M46.7,8.69a.55.55,0,0,0,.23.2.72.72,0,0,0,.29.06l.17,0,.15-.08a.37.37,0,0,0,.12-.13.33.33,0,0,0,0-.17.27.27,0,0,0-.09-.22.66.66,0,0,0-.22-.12l-.29-.1A1.08,1.08,0,0,1,46.81,8a.66.66,0,0,1-.22-.22.68.68,0,0,1-.09-.37.64.64,0,0,1,0-.23.62.62,0,0,1,.15-.22A.79.79,0,0,1,47,6.77a1.08,1.08,0,0,1,.38-.06,1.2,1.2,0,0,1,.38,0A.69.69,0,0,1,48,7l-.27.25a.44.44,0,0,0-.17-.16A.58.58,0,0,0,47.33,7a.75.75,0,0,0-.23,0,.54.54,0,0,0-.15.09.33.33,0,0,0-.07.13.27.27,0,0,0,0,.12.29.29,0,0,0,.09.23.74.74,0,0,0,.23.14l.28.09a1.26,1.26,0,0,1,.29.12.57.57,0,0,1,.22.19.61.61,0,0,1,.09.35.65.65,0,0,1-.24.55.72.72,0,0,1-.27.15.91.91,0,0,1-.33,0,1,1,0,0,1-.44-.08.68.68,0,0,1-.34-.25Z"/><path class="cls-10" d="M49.19,7.08H48.4V6.77h1.9v.31h-.78V9.2h-.33Z"/><path class="cls-10" d="M50.79,6.77h.85a1.07,1.07,0,0,1,.39.06.72.72,0,0,1,.24.16.53.53,0,0,1,.12.22,1,1,0,0,1,0,.24.54.54,0,0,1,0,.22.59.59,0,0,1-.12.2.65.65,0,0,1-.18.15.71.71,0,0,1-.26.07l.7,1.11H52.1l-.61-1.07h-.37V9.2h-.33Zm.33,1.07h.43l.19,0,.17-.05A.34.34,0,0,0,52,7.65a.52.52,0,0,0,0-.4.28.28,0,0,0-.12-.12.49.49,0,0,0-.17-.06h-.62Z"/><path class="cls-10" d="M53.79,6.77h.3l1,2.43h-.39l-.24-.6H53.34l-.24.6h-.38Zm.59,1.54-.46-1.12h0l-.46,1.12Z"/><path class="cls-10" d="M55.58,6.77h.33V8.89H57V9.2H55.58Z"/><path class="cls-10" d="M57.5,6.77h.33V9.2H57.5Z"/><path class="cls-10" d="M59.36,6.77h.29L60.7,9.2h-.39l-.24-.6H58.91l-.24.6h-.39ZM60,8.31l-.46-1.12h0L59,8.31Z"/><path class="cls-10" d="M41.47,10.25h.33v2.43h-.33Z"/><path class="cls-10" d="M42.5,10.25h.44l1.34,2h0v-2h.33v2.43H44.2l-1.36-2h0v2H42.5Z"/><path class="cls-10" d="M45.27,10.25h.85a1.53,1.53,0,0,1,.45.06,1.26,1.26,0,0,1,.33.15,1.06,1.06,0,0,1,.24.23,1.35,1.35,0,0,1,.15.26,1.38,1.38,0,0,1,.08.27,1.1,1.1,0,0,1,0,.25,1.42,1.42,0,0,1-.08.45,1.21,1.21,0,0,1-.26.39,1.33,1.33,0,0,1-.41.27,1.5,1.5,0,0,1-.58.1h-.79Zm.33,2.12H46a1.75,1.75,0,0,0,.4,0,1.29,1.29,0,0,0,.33-.17.86.86,0,0,0,.3-.68,1.58,1.58,0,0,0,0-.28.89.89,0,0,0-.15-.29.7.7,0,0,0-.29-.24,1,1,0,0,0-.48-.1H45.6Z"/><path class="cls-10" d="M49,12.74a1.36,1.36,0,0,1-.51-.09,1.28,1.28,0,0,1-.4-.27,1.1,1.1,0,0,1-.26-.41,1.18,1.18,0,0,1-.1-.5,1.25,1.25,0,0,1,.1-.51,1.19,1.19,0,0,1,.26-.41,1.11,1.11,0,0,1,.4-.26,1.19,1.19,0,0,1,.51-.1,1.25,1.25,0,0,1,.51.1,1.11,1.11,0,0,1,.4.26,1.36,1.36,0,0,1,.26.41,1.25,1.25,0,0,1,.1.51,1.18,1.18,0,0,1-.1.5,1.25,1.25,0,0,1-.26.41,1.28,1.28,0,0,1-.4.27A1.44,1.44,0,0,1,49,12.74Zm0-.31a1,1,0,0,0,.38-.07.86.86,0,0,0,.47-.52,1,1,0,0,0,0-.75.87.87,0,0,0-.18-.31,1.27,1.27,0,0,0-.29-.21A1,1,0,0,0,49,10.5a.92.92,0,0,0-.38.07,1.27,1.27,0,0,0-.29.21.87.87,0,0,0-.18.31,1,1,0,0,0-.07.38.94.94,0,0,0,.07.37.86.86,0,0,0,.47.52A.92.92,0,0,0,49,12.43Z"/><path class="cls-10" d="M50.77,10.25h.43l1.34,2h0v-2h.33v2.43h-.42l-1.35-2h0v2h-.33Z"/><path class="cls-10" d="M53.54,10.25H55.1v.31H53.86v.72H55v.31H53.86v.78h1.31v.31H53.54Z"/><path class="cls-10" d="M55.81,12.17a.5.5,0,0,0,.23.2.67.67,0,0,0,.28.06.5.5,0,0,0,.17,0,.48.48,0,0,0,.16-.08.47.47,0,0,0,.11-.13.31.31,0,0,0,.05-.17.28.28,0,0,0-.09-.22,1.14,1.14,0,0,0-.22-.12l-.29-.1a1.26,1.26,0,0,1-.29-.12.69.69,0,0,1-.22-.23.75.75,0,0,1-.05-.6.62.62,0,0,1,.15-.22.84.84,0,0,1,.26-.17,1,1,0,0,1,.37-.06,1.58,1.58,0,0,1,.38.05.6.6,0,0,1,.32.23l-.26.24a.69.69,0,0,0-.18-.16.71.71,0,0,0-.26-.05.75.75,0,0,0-.23,0,.39.39,0,0,0-.14.1.32.32,0,0,0-.1.24.29.29,0,0,0,.09.23.55.55,0,0,0,.22.14l.29.09a1.48,1.48,0,0,1,.29.12.69.69,0,0,1,.22.2.57.57,0,0,1,.09.34.7.7,0,0,1-.25.55.72.72,0,0,1-.27.15.88.88,0,0,1-.33.05,1.11,1.11,0,0,1-.44-.08.7.7,0,0,1-.33-.25Z"/><path class="cls-10" d="M57.78,10.25h.33v2.43h-.33Z"/><path class="cls-10" d="M59.59,10.25h.3l1,2.43h-.39l-.24-.6H59.15l-.24.6h-.39Zm.6,1.54-.46-1.12h0l-.46,1.12Z"/><path class="cls-10" d="M41.5,13.73h.86a1,1,0,0,1,.38.06A.74.74,0,0,1,43,14a.48.48,0,0,1,.12.22,1,1,0,0,1,0,.23.93.93,0,0,1,0,.23.76.76,0,0,1-.12.19.7.7,0,0,1-.19.15.55.55,0,0,1-.25.07l.69,1.11h-.41l-.62-1.07h-.37v1.07H41.5Zm.33,1.07h.63a.44.44,0,0,0,.16-.06.34.34,0,0,0,.12-.12.42.42,0,0,0,0-.4.34.34,0,0,0-.12-.12.44.44,0,0,0-.16-.06h-.63Z"/><path class="cls-10" d="M43.89,13.73h1.57V14H44.22v.73h1.15v.3H44.22v.78h1.3v.31H43.89Z"/><path class="cls-10" d="M46.34,15.66a.6.6,0,0,0,.23.19.59.59,0,0,0,.29.07l.17,0a.44.44,0,0,0,.15-.08.34.34,0,0,0,.12-.12.37.37,0,0,0,0-.18.26.26,0,0,0-.09-.21.91.91,0,0,0-.22-.13l-.29-.09a1.51,1.51,0,0,1-.29-.13.92.92,0,0,1-.22-.22.71.71,0,0,1-.09-.38.68.68,0,0,1,0-.23.62.62,0,0,1,.15-.22.77.77,0,0,1,.25-.16.89.89,0,0,1,.38-.07,1.58,1.58,0,0,1,.38.05.64.64,0,0,1,.32.23l-.27.24a.5.5,0,0,0-.17-.15A.58.58,0,0,0,47,14a.75.75,0,0,0-.23,0,.56.56,0,0,0-.15.1.37.37,0,0,0-.07.12.27.27,0,0,0,0,.12.32.32,0,0,0,.09.24.8.8,0,0,0,.22.13,2.46,2.46,0,0,0,.29.09,1.26,1.26,0,0,1,.29.12.6.6,0,0,1,.22.2.57.57,0,0,1,.09.34.79.79,0,0,1-.06.32.88.88,0,0,1-.19.24.72.72,0,0,1-.26.14,1,1,0,0,1-.33.06,1.13,1.13,0,0,1-.45-.09.7.7,0,0,1-.33-.25Z"/><path class="cls-10" d="M48.47,13.73H50V14H48.79v.73H50v.3H48.79v.78H50.1v.31H48.47Z"/><path class="cls-10" d="M51.63,13.73h.3l1,2.43h-.39l-.24-.6H51.18l-.24.6h-.38Zm.59,1.54-.45-1.11h0l-.46,1.11Z"/><path class="cls-10" d="M53.61,13.73h.85a1.1,1.1,0,0,1,.39.06.6.6,0,0,1,.23.17.61.61,0,0,1,.13.22,1,1,0,0,1,0,.23.62.62,0,0,1,0,.23.76.76,0,0,1-.12.19.58.58,0,0,1-.19.15.52.52,0,0,1-.25.07l.69,1.11h-.41l-.62-1.07h-.37v1.07h-.32Zm.32,1.07h.63a.49.49,0,0,0,.17-.06.34.34,0,0,0,.12-.12.52.52,0,0,0,0-.4.34.34,0,0,0-.12-.12.49.49,0,0,0-.17-.06h-.63Z"/><path class="cls-10" d="M57.68,14.26a.67.67,0,0,0-.26-.21A.71.71,0,0,0,57.1,14a.79.79,0,0,0-.38.08.83.83,0,0,0-.28.21,1.08,1.08,0,0,0-.19.31,1.23,1.23,0,0,0-.06.39,1,1,0,0,0,.06.36.75.75,0,0,0,.18.3.78.78,0,0,0,.29.21.89.89,0,0,0,.38.08.69.69,0,0,0,.36-.09.78.78,0,0,0,.27-.24l.28.21-.1.11a1,1,0,0,1-.18.14,1,1,0,0,1-.27.12,1.06,1.06,0,0,1-.37.06,1.11,1.11,0,0,1-.52-.12,1.15,1.15,0,0,1-.4-.28,1.33,1.33,0,0,1-.25-.41,1.42,1.42,0,0,1-.08-.45,1.46,1.46,0,0,1,.09-.52,1.29,1.29,0,0,1,.26-.42,1.41,1.41,0,0,1,.4-.27,1.46,1.46,0,0,1,.52-.09,1.31,1.31,0,0,1,.47.09.9.9,0,0,1,.38.29Z"/><path class="cls-10" d="M58.64,13.73H59v1h1.26v-1h.33v2.43h-.33V15.05H59v1.11h-.33Z"/></svg>