<svg id="Layer_1" data-name="Layer 1" xmlns="http://www.w3.org/2000/svg" xmlns:xlink="http://www.w3.org/1999/xlink" viewBox="0 0 99.58 49.08"><defs><style>.cls-1{fill:none;}.cls-2{clip-path:url(#clip-path);}.cls-3{fill:#6f214f;}</style><clipPath id="clip-path"><rect class="cls-1" x="1.01" y="18.27" width="97.55" height="14.44"/></clipPath></defs><title>reelozind-logo</title><g class="cls-2"><path class="cls-3" d="M7.65,18.27a4.62,4.62,0,0,1,3,.81,3.43,3.43,0,0,1,1.05,2.68c0,2.17-1.25,3-2.24,3.26a2.57,2.57,0,0,1-.38.08l.42.06c1.27.3,1.4,1.27,1.66,2.75l.36,2.3h1.19v2H9.27L8.54,28a3.59,3.59,0,0,0-.4-1.26c-.39-.6-.93-.6-1.54-.62H5v4.06H6.32v2H1v-2H2.32v-9.9H1v-2ZM5,20.31v3.76H6.89c.68,0,2.18,0,2.18-1.86a2.12,2.12,0,0,0-.27-1.13c-.42-.73-1.07-.75-2-.77Z"/><path class="cls-3" d="M22.81,28.92A4,4,0,0,1,22,31a4.69,4.69,0,0,1-3.8,1.59c-3.15,0-4.69-1.79-4.69-5.43a5.54,5.54,0,0,1,1.32-4.06,4.33,4.33,0,0,1,3.33-1.3,4.49,4.49,0,0,1,3.5,1.4,6.76,6.76,0,0,1,1.19,4.34H16.16a5.19,5.19,0,0,0,.38,2.18,1.76,1.76,0,0,0,1.64,1,1.84,1.84,0,0,0,2-1.77Zm-2.67-3.1c0-.56-.28-2.18-1.9-2.18a1.81,1.81,0,0,0-1.43.65,2.58,2.58,0,0,0-.55,1.53Z"/><path class="cls-3" d="M33.54,28.92a3.89,3.89,0,0,1-.81,2,4.69,4.69,0,0,1-3.8,1.59c-3.15,0-4.69-1.79-4.69-5.43a5.54,5.54,0,0,1,1.32-4.06,4.33,4.33,0,0,1,3.33-1.3,4.49,4.49,0,0,1,3.5,1.4,6.76,6.76,0,0,1,1.19,4.34H26.89a5.19,5.19,0,0,0,.38,2.18,1.76,1.76,0,0,0,1.64,1,1.84,1.84,0,0,0,2-1.77Zm-2.67-3.1c0-.56-.28-2.18-1.9-2.18a1.81,1.81,0,0,0-1.43.65A2.58,2.58,0,0,0,27,25.82Z"/></g><polygon class="cls-3" points="34.63 18.27 34.63 20.31 35.98 20.31 35.98 30.21 34.63 30.21 34.63 32.25 39.86 32.25 39.86 30.21 38.61 30.21 38.61 18.27 34.63 18.27"/><polygon class="cls-3" points="55.58 22 55.58 25.54 57.78 25.54 57.78 23.84 60.88 23.84 55.48 30.33 55.48 32.25 63.91 32.25 63.91 28.65 61.72 28.65 61.72 30.47 58.61 30.47 63.91 24.07 63.91 22 55.58 22"/><polygon class="cls-3" points="65.18 18.27 65.18 20.31 66.47 20.31 66.47 30.21 65.18 30.21 65.18 32.25 70.49 32.25 70.49 30.21 69.16 30.21 69.16 20.31 70.49 20.31 70.49 18.27 65.18 18.27"/><g class="cls-2"><path class="cls-3" d="M81.22,30.21H82.5v2H77.61v-2h1V25.52a1.74,1.74,0,0,0-.27-1.13,1.26,1.26,0,0,0-1.07-.49,1.76,1.76,0,0,0-1.35.55,1.64,1.64,0,0,0-.45,1.35v4.41h1v2h-5v-2H72.8V24H71.46V22h3.66l.16,1.29a3.07,3.07,0,0,1,2.87-1.54,2.84,2.84,0,0,1,2.51,1.13,3.87,3.87,0,0,1,.56,2.21Z"/><path class="cls-3" d="M88.44,18.27h4V30.21h1.27v2H90l0-1a3.3,3.3,0,0,1-2.83,1.31c-2.95,0-4-2.88-4-5.43s1.09-5.4,3.94-5.4a4,4,0,0,1,1.32.21,3.21,3.21,0,0,1,1.41,1V20.31H88.44ZM87,23.89a2.59,2.59,0,0,0-1.09,2,9,9,0,0,0-.1,1.35,4.69,4.69,0,0,0,.52,2.44,1.54,1.54,0,0,0,1.4.87c1.11,0,1.78-1,2-2.3a6.81,6.81,0,0,0,.1-1.27,5.29,5.29,0,0,0-.44-2.33,1.83,1.83,0,0,0-1.58-.95,1.73,1.73,0,0,0-.83.19"/></g><path class="cls-3" d="M95.49,32.25h3V29.32h-3Zm0-14,.28,9.9h2.37l.4-9.9Z"/><g class="cls-2"><path class="cls-3" d="M54.7,25.49a7.22,7.22,0,1,0-7.22,7.22,7.22,7.22,0,0,0,7.22-7.22m-3.49,0L45.34,28.3V22.68Z"/></g></svg>