<?xml version="1.0" encoding="utf-8"?>
<!-- Generator: Adobe Illustrator 22.1.0, SVG Export Plug-In . SVG Version: 6.00 Build 0)  -->
<svg version="1.1" id="Layer_1" xmlns="http://www.w3.org/2000/svg" xmlns:xlink="http://www.w3.org/1999/xlink" x="0px" y="0px"
	 viewBox="0 0 79 79" style="enable-background:new 0 0 79 79;" xml:space="preserve">
<style type="text/css">
	.st0{fill:#FFFFFF;}
</style>
<title>search</title>
<path class="st0" d="M68.1,63.7l-0.7,0.7l0,0v0L68.1,63.7L48.8,44.2c7.2-9.5,5.7-23.1-3.5-30.8c-9.5-8-23.7-6.7-31.6,2.8
	c-8,9.5-6.7,23.7,2.8,31.6c8.1,6.8,19.8,7,28.1,0.6L64,67.8c0.6,0.5,1.3,0.8,2.1,0.8c0.8,0,1.5-0.3,2.1-0.9
	C69.2,66.6,69.2,64.8,68.1,63.7z M47.5,30.6c0,9.1-7.4,16.5-16.5,16.5h0c0,0,0,0,0,0c-4.4,0-8.6-1.7-11.7-4.8
	c-3.1-3.1-4.9-7.3-4.9-11.7c0-4.4,1.7-8.6,4.8-11.7c3.1-3.1,7.3-4.9,11.7-4.9c0,0,0,0,0,0C40.1,14,47.5,21.5,47.5,30.6z"/>
</svg>
