<svg id="Layer_1" data-name="Layer 1" xmlns="http://www.w3.org/2000/svg" xmlns:xlink="http://www.w3.org/1999/xlink" viewBox="0 0 82.67 45.33"><defs><style>.cls-1{fill:url(#linear-gradient);}.cls-2{fill:#d7de28;}.cls-3{fill:#010101;}</style><linearGradient id="linear-gradient" x1="21.9" y1="24.67" x2="59.71" y2="24.67" gradientUnits="userSpaceOnUse"><stop offset="0" stop-color="#d7df28"/><stop offset="0.16" stop-color="#d7df28"/><stop offset="1" stop-color="#61cae6"/></linearGradient></defs><title>skills-futures-p</title><path class="cls-1" d="M32.79,42.26a9.52,9.52,0,0,1-6.5-5.83s-.95-2.33-2-10.56-.78-10.69-.78-10.71a9,9,0,0,1,9.16-8.3,13.34,13.34,0,0,1,5.64,1.33l13.94,6.52c3.44,1.61,5.54,4,5.92,6.85s-1,5.69-3.94,8.11L42.42,39.45a12.12,12.12,0,0,1-7.62,3,9,9,0,0,1-2-.23M27.52,6.57A10.84,10.84,0,0,0,22,15c0,.1-.35,2.59.78,11.11s2.1,10.85,2.14,11a11,11,0,0,0,7.56,6.7A10.35,10.35,0,0,0,34.8,44a13.64,13.64,0,0,0,8.6-3.39l11.78-9.78c3.31-2.76,4.9-6.11,4.46-9.44s-2.85-6.17-6.77-8L38.93,6.85a14.91,14.91,0,0,0-6.3-1.49,10.88,10.88,0,0,0-5.11,1.21"/><path class="cls-2" d="M31.45,40.13c-3.9,0-7.26-1.31-9.41-3.72a10.66,10.66,0,0,1-2.15-9.7c0-.11.62-2.66,5-10.81s6.23-10.11,6.3-10.19a11.85,11.85,0,0,1,10-4c3.75.43,7.06,2.78,9.32,6.61l8.23,13.91c2.15,3.64,2.52,7.3,1,10.29-1.58,3.16-5,5.17-9.62,5.67L33.41,40A16.32,16.32,0,0,1,31.45,40.13Zm8.5-38A11.66,11.66,0,0,0,31.53,6s-1.88,2-6.24,10.09-5,10.67-5,10.69a10.23,10.23,0,0,0,2.06,9.32c2.41,2.7,6.42,4,11,3.47l16.7-1.81c4.47-.48,7.76-2.41,9.28-5.43,1.42-2.85,1.07-6.36-1-9.87L50.11,8.57c-2.19-3.71-5.38-6-9-6.39A9.18,9.18,0,0,0,40,2.11Z"/><path class="cls-3" d="M1.62,25.37l.89-1.05a3.4,3.4,0,0,0,2.25,1c1,0,1.5-.44,1.5-1.11s-.56-.94-1.34-1.27l-1.18-.51A2.48,2.48,0,0,1,2,20.13,2.62,2.62,0,0,1,4.89,17.7a3.78,3.78,0,0,1,2.66,1.1l-.78,1A2.78,2.78,0,0,0,4.89,19c-.81,0-1.35.38-1.35,1s.66.93,1.37,1.22l1.17.49a2.4,2.4,0,0,1,1.74,2.32c0,1.4-1.16,2.57-3.09,2.57A4.43,4.43,0,0,1,1.62,25.37Z"/><path class="cls-3" d="M8.86,17.17h1.49V23h0l2.4-3h1.66l-2.22,2.64,2.45,3.84H13l-1.67-2.81-1,1.16v1.65H8.86Z"/><path class="cls-3" d="M15.37,18a.94.94,0,1,1,.94.86A.87.87,0,0,1,15.37,18Zm.17,2h1.52v6.48H15.54Z"/><path class="cls-3" d="M18.79,24.81V17.17h1.52v7.72c0,.38.17.51.33.51a.72.72,0,0,0,.23,0l.19,1.13a1.94,1.94,0,0,1-.8.14C19.19,26.64,18.79,25.94,18.79,24.81Z"/><path class="cls-3" d="M22.16,24.81V17.17h1.52v7.72c0,.38.17.51.33.51a.72.72,0,0,0,.23,0l.19,1.13a1.94,1.94,0,0,1-.8.14C22.56,26.64,22.16,25.94,22.16,24.81Z"/><path class="cls-3" d="M25,25.73l.71-1a2.83,2.83,0,0,0,1.79.72c.7,0,1-.33,1-.77s-.7-.79-1.39-1c-.85-.32-1.82-.81-1.82-1.89s.91-1.93,2.36-1.93a3.48,3.48,0,0,1,2.15.77l-.69.94A2.39,2.39,0,0,0,27.74,21c-.65,0-1,.31-1,.72s.65.7,1.35,1c.88.33,1.86.75,1.86,2s-.88,2-2.52,2A4,4,0,0,1,25,25.73Z"/><path class="cls-3" d="M31.48,17.86h5.21v1.29H33v2.44h3.13v1.29H33v3.6H31.48Z"/><path class="cls-3" d="M38,22.7V17.86h1.53v5c0,1.87.7,2.49,1.74,2.49S43,24.69,43,22.82v-5h1.47V22.7c0,2.83-1.25,3.94-3.25,3.94S38,25.53,38,22.7Z"/><path class="cls-3" d="M48.05,19.15H45.56V17.86h6.5v1.29H49.57v7.33H48.05Z"/><path class="cls-3" d="M53.2,22.7V17.86h1.53v5c0,1.87.7,2.49,1.75,2.49s1.78-.62,1.78-2.49v-5h1.47V22.7c0,2.83-1.26,3.94-3.25,3.94S53.2,25.53,53.2,22.7Z"/><path class="cls-3" d="M61.16,17.86h2.9c1.79,0,3.17.63,3.17,2.56s-1.38,2.69-3.17,2.69H62.68v3.37H61.16Zm2.74,4c1.18,0,1.83-.49,1.83-1.47s-.65-1.34-1.83-1.34H62.68v2.81Zm-.13.81,1.11-.91,2.69,4.69H65.85Z"/><path class="cls-3" d="M68.69,17.86h5.19v1.29H70.22v2.2h3.1v1.29h-3.1v2.55H74v1.29H68.69Z"/><path class="cls-3" d="M74.79,25.37l.89-1.05a3.38,3.38,0,0,0,2.25,1c1,0,1.5-.44,1.5-1.11s-.56-.94-1.34-1.27l-1.18-.51a2.48,2.48,0,0,1-1.74-2.29,2.62,2.62,0,0,1,2.89-2.43,3.78,3.78,0,0,1,2.66,1.1l-.79,1A2.74,2.74,0,0,0,78.06,19c-.81,0-1.35.38-1.35,1s.66.93,1.37,1.22l1.17.49A2.4,2.4,0,0,1,81,24.07c0,1.4-1.16,2.57-3.1,2.57A4.42,4.42,0,0,1,74.79,25.37Z"/></svg>